G04 MADE WITH FRITZING*
G04 WWW.FRITZING.ORG*
G04 DOUBLE SIDED*
G04 HOLES PLATED*
G04 CONTOUR ON CENTER OF CONTOUR VECTOR*
%ASAXBY*%
%FSLAX23Y23*%
%MOIN*%
%OFA0B0*%
%SFA1.0B1.0*%
%ADD10C,0.066000*%
%ADD11C,0.110000*%
%ADD12C,0.078000*%
%ADD13C,0.062992*%
%ADD14C,0.074000*%
%ADD15C,0.106614*%
%ADD16R,0.062992X0.062992*%
%ADD17C,0.048000*%
%ADD18R,0.001000X0.001000*%
%LNCOPPER1*%
G90*
G70*
G54D10*
X1240Y1451D03*
X1142Y1451D03*
X1142Y1529D03*
X1240Y1529D03*
G54D11*
X1428Y1636D03*
X954Y1636D03*
G54D10*
X1240Y1451D03*
X1142Y1451D03*
X1142Y1529D03*
X1240Y1529D03*
G54D11*
X1428Y1636D03*
X954Y1636D03*
G54D10*
X1240Y1451D03*
X1142Y1451D03*
X1142Y1529D03*
X1240Y1529D03*
G54D11*
X1428Y1636D03*
X954Y1636D03*
G54D10*
X1140Y551D03*
X1239Y551D03*
X1239Y473D03*
X1140Y473D03*
G54D11*
X952Y366D03*
X1426Y366D03*
G54D10*
X1140Y551D03*
X1239Y551D03*
X1239Y473D03*
X1140Y473D03*
G54D11*
X952Y366D03*
X1426Y366D03*
G54D10*
X1140Y551D03*
X1239Y551D03*
X1239Y473D03*
X1140Y473D03*
G54D11*
X952Y366D03*
X1426Y366D03*
G54D12*
X740Y1351D03*
X740Y1251D03*
X1640Y351D03*
X1640Y451D03*
X740Y1051D03*
X740Y951D03*
G54D13*
X1439Y951D03*
X1340Y951D03*
G54D14*
X540Y276D03*
X540Y369D03*
X540Y458D03*
X540Y551D03*
G54D15*
X446Y642D03*
X446Y185D03*
G54D14*
X540Y276D03*
X540Y369D03*
X540Y458D03*
X540Y551D03*
G54D15*
X446Y642D03*
X446Y185D03*
G54D14*
X540Y276D03*
X540Y369D03*
X540Y458D03*
X540Y551D03*
G54D15*
X446Y642D03*
X446Y185D03*
G54D14*
X540Y1177D03*
X540Y1270D03*
X540Y1359D03*
X540Y1453D03*
G54D15*
X446Y1543D03*
X446Y1086D03*
G54D14*
X540Y1177D03*
X540Y1270D03*
X540Y1359D03*
X540Y1453D03*
G54D15*
X446Y1543D03*
X446Y1086D03*
G54D14*
X540Y1177D03*
X540Y1270D03*
X540Y1359D03*
X540Y1453D03*
G54D15*
X446Y1543D03*
X446Y1086D03*
G54D16*
X1439Y951D03*
G54D17*
X941Y1052D02*
X939Y1352D01*
D02*
X941Y1052D02*
X941Y1052D01*
D02*
X939Y1452D02*
X1104Y1515D01*
D02*
X939Y1352D02*
X939Y1452D01*
D02*
X781Y1052D02*
X941Y1052D01*
D02*
X1140Y953D02*
X1142Y1411D01*
D02*
X781Y952D02*
X1140Y953D01*
D02*
X699Y1353D02*
X581Y1358D01*
D02*
X1541Y1552D02*
X1280Y1532D01*
D02*
X739Y250D02*
X739Y51D01*
D02*
X1541Y651D02*
X1140Y651D01*
D02*
X1541Y352D02*
X1541Y552D01*
D02*
X1541Y552D02*
X1279Y551D01*
D02*
X1599Y352D02*
X1541Y352D01*
D02*
X1140Y352D02*
X841Y352D01*
D02*
X841Y552D02*
X580Y551D01*
D02*
X841Y352D02*
X841Y552D01*
D02*
X1140Y433D02*
X1140Y352D01*
D02*
X739Y51D02*
X1840Y51D01*
D02*
X1140Y651D02*
X1140Y592D01*
D02*
X1840Y651D02*
X1541Y651D01*
D02*
X1840Y51D02*
X1840Y651D01*
D02*
X580Y271D02*
X739Y250D01*
D02*
X1541Y1252D02*
X1541Y1552D01*
D02*
X1541Y952D02*
X1541Y1252D01*
D02*
X1477Y952D02*
X1541Y952D01*
D02*
X1340Y989D02*
X1339Y1351D01*
D02*
X1339Y1451D02*
X1280Y1451D01*
D02*
X1339Y1351D02*
X1339Y1451D01*
D02*
X1740Y452D02*
X1740Y151D01*
D02*
X1740Y151D02*
X1240Y151D01*
D02*
X1240Y151D02*
X1239Y433D01*
D02*
X1681Y452D02*
X1740Y452D01*
D02*
X580Y1267D02*
X699Y1255D01*
D02*
X739Y1652D02*
X240Y1653D01*
D02*
X740Y1393D02*
X739Y1652D01*
D02*
X241Y452D02*
X500Y457D01*
D02*
X240Y1653D02*
X241Y452D01*
D02*
X139Y352D02*
X500Y368D01*
D02*
X141Y1751D02*
X139Y352D01*
D02*
X841Y1251D02*
X841Y1752D01*
D02*
X841Y1752D02*
X141Y1751D01*
D02*
X781Y1251D02*
X841Y1251D01*
D02*
X1240Y1752D02*
X1541Y1752D01*
D02*
X1541Y1752D02*
X1641Y1752D01*
D02*
X1641Y1752D02*
X1641Y751D01*
D02*
X1240Y1570D02*
X1240Y1752D01*
D02*
X1641Y751D02*
X341Y751D01*
D02*
X1240Y1411D02*
X1240Y851D01*
D02*
X540Y851D02*
X540Y1137D01*
D02*
X1240Y851D02*
X540Y851D01*
D02*
X340Y1453D02*
X500Y1453D01*
D02*
X341Y751D02*
X340Y1453D01*
G54D18*
X1755Y1460D02*
X1784Y1460D01*
X1753Y1459D02*
X1787Y1459D01*
X1751Y1458D02*
X1788Y1458D01*
X1750Y1457D02*
X1790Y1457D01*
X1749Y1456D02*
X1791Y1456D01*
X1748Y1455D02*
X1791Y1455D01*
X1747Y1454D02*
X1792Y1454D01*
X1746Y1453D02*
X1793Y1453D01*
X1745Y1452D02*
X1794Y1452D01*
X1745Y1451D02*
X1795Y1451D01*
X1744Y1450D02*
X1756Y1450D01*
X1783Y1450D02*
X1796Y1450D01*
X1744Y1449D02*
X1755Y1449D01*
X1784Y1449D02*
X1796Y1449D01*
X1743Y1448D02*
X1754Y1448D01*
X1785Y1448D02*
X1797Y1448D01*
X1743Y1447D02*
X1753Y1447D01*
X1786Y1447D02*
X1797Y1447D01*
X1742Y1446D02*
X1753Y1446D01*
X1787Y1446D02*
X1797Y1446D01*
X1742Y1445D02*
X1752Y1445D01*
X1788Y1445D02*
X1797Y1445D01*
X1742Y1444D02*
X1751Y1444D01*
X1788Y1444D02*
X1798Y1444D01*
X1742Y1443D02*
X1751Y1443D01*
X1788Y1443D02*
X1798Y1443D01*
X1742Y1442D02*
X1751Y1442D01*
X1789Y1442D02*
X1798Y1442D01*
X1742Y1441D02*
X1751Y1441D01*
X1789Y1441D02*
X1798Y1441D01*
X1742Y1440D02*
X1751Y1440D01*
X1789Y1440D02*
X1798Y1440D01*
X1742Y1439D02*
X1751Y1439D01*
X1789Y1439D02*
X1798Y1439D01*
X1742Y1438D02*
X1751Y1438D01*
X1789Y1438D02*
X1798Y1438D01*
X1742Y1437D02*
X1751Y1437D01*
X1789Y1437D02*
X1798Y1437D01*
X1742Y1436D02*
X1751Y1436D01*
X1789Y1436D02*
X1798Y1436D01*
X1742Y1435D02*
X1751Y1435D01*
X1789Y1435D02*
X1798Y1435D01*
X1742Y1434D02*
X1751Y1434D01*
X1789Y1434D02*
X1798Y1434D01*
X1742Y1433D02*
X1751Y1433D01*
X1789Y1433D02*
X1798Y1433D01*
X1742Y1432D02*
X1751Y1432D01*
X1789Y1432D02*
X1798Y1432D01*
X1742Y1431D02*
X1751Y1431D01*
X1789Y1431D02*
X1798Y1431D01*
X1742Y1430D02*
X1751Y1430D01*
X1789Y1430D02*
X1798Y1430D01*
X1742Y1429D02*
X1751Y1429D01*
X1788Y1429D02*
X1798Y1429D01*
X1742Y1428D02*
X1751Y1428D01*
X1788Y1428D02*
X1798Y1428D01*
X1742Y1427D02*
X1752Y1427D01*
X1788Y1427D02*
X1797Y1427D01*
X1742Y1426D02*
X1753Y1426D01*
X1787Y1426D02*
X1797Y1426D01*
X1743Y1425D02*
X1753Y1425D01*
X1786Y1425D02*
X1797Y1425D01*
X1743Y1424D02*
X1754Y1424D01*
X1786Y1424D02*
X1796Y1424D01*
X1744Y1423D02*
X1755Y1423D01*
X1785Y1423D02*
X1796Y1423D01*
X1744Y1422D02*
X1756Y1422D01*
X1783Y1422D02*
X1795Y1422D01*
X1745Y1421D02*
X1795Y1421D01*
X1746Y1420D02*
X1794Y1420D01*
X1746Y1419D02*
X1793Y1419D01*
X1747Y1418D02*
X1792Y1418D01*
X1748Y1417D02*
X1791Y1417D01*
X1749Y1416D02*
X1791Y1416D01*
X1750Y1415D02*
X1789Y1415D01*
X1751Y1414D02*
X1788Y1414D01*
X1753Y1413D02*
X1787Y1413D01*
X1755Y1412D02*
X1784Y1412D01*
X1723Y1388D02*
X1797Y1388D01*
X1722Y1387D02*
X1799Y1387D01*
X1721Y1386D02*
X1799Y1386D01*
X1721Y1385D02*
X1800Y1385D01*
X1721Y1384D02*
X1800Y1384D01*
X1721Y1383D02*
X1800Y1383D01*
X1721Y1382D02*
X1799Y1382D01*
X1722Y1381D02*
X1799Y1381D01*
X1723Y1380D02*
X1798Y1380D01*
X1725Y1379D02*
X1796Y1379D01*
X1746Y1378D02*
X1760Y1378D01*
X1779Y1378D02*
X1793Y1378D01*
X1745Y1377D02*
X1759Y1377D01*
X1781Y1377D02*
X1794Y1377D01*
X1744Y1376D02*
X1758Y1376D01*
X1782Y1376D02*
X1795Y1376D01*
X1743Y1375D02*
X1757Y1375D01*
X1783Y1375D02*
X1796Y1375D01*
X1743Y1374D02*
X1756Y1374D01*
X1784Y1374D02*
X1797Y1374D01*
X1742Y1373D02*
X1755Y1373D01*
X1785Y1373D02*
X1797Y1373D01*
X1742Y1372D02*
X1754Y1372D01*
X1786Y1372D02*
X1798Y1372D01*
X1741Y1371D02*
X1753Y1371D01*
X1787Y1371D02*
X1798Y1371D01*
X1741Y1370D02*
X1752Y1370D01*
X1788Y1370D02*
X1799Y1370D01*
X1740Y1369D02*
X1751Y1369D01*
X1789Y1369D02*
X1799Y1369D01*
X1740Y1368D02*
X1750Y1368D01*
X1790Y1368D02*
X1799Y1368D01*
X1740Y1367D02*
X1749Y1367D01*
X1790Y1367D02*
X1800Y1367D01*
X1740Y1366D02*
X1749Y1366D01*
X1790Y1366D02*
X1800Y1366D01*
X1740Y1365D02*
X1749Y1365D01*
X1791Y1365D02*
X1800Y1365D01*
X1740Y1364D02*
X1749Y1364D01*
X1791Y1364D02*
X1800Y1364D01*
X1740Y1363D02*
X1749Y1363D01*
X1791Y1363D02*
X1800Y1363D01*
X1740Y1362D02*
X1749Y1362D01*
X1791Y1362D02*
X1800Y1362D01*
X1740Y1361D02*
X1749Y1361D01*
X1790Y1361D02*
X1800Y1361D01*
X1740Y1360D02*
X1750Y1360D01*
X1790Y1360D02*
X1799Y1360D01*
X1740Y1359D02*
X1751Y1359D01*
X1789Y1359D02*
X1799Y1359D01*
X1741Y1358D02*
X1751Y1358D01*
X1788Y1358D02*
X1799Y1358D01*
X1741Y1357D02*
X1752Y1357D01*
X1787Y1357D02*
X1798Y1357D01*
X1741Y1356D02*
X1753Y1356D01*
X1786Y1356D02*
X1798Y1356D01*
X1742Y1355D02*
X1754Y1355D01*
X1785Y1355D02*
X1798Y1355D01*
X1743Y1354D02*
X1755Y1354D01*
X1785Y1354D02*
X1797Y1354D01*
X1743Y1353D02*
X1756Y1353D01*
X1784Y1353D02*
X1796Y1353D01*
X1744Y1352D02*
X1757Y1352D01*
X1783Y1352D02*
X1795Y1352D01*
X1745Y1351D02*
X1757Y1351D01*
X1782Y1351D02*
X1795Y1351D01*
X1746Y1350D02*
X1759Y1350D01*
X1781Y1350D02*
X1794Y1350D01*
X1747Y1349D02*
X1793Y1349D01*
X1748Y1348D02*
X1792Y1348D01*
X1749Y1347D02*
X1791Y1347D01*
X1749Y1346D02*
X1790Y1346D01*
X1750Y1345D02*
X1789Y1345D01*
X1751Y1344D02*
X1788Y1344D01*
X1752Y1343D02*
X1787Y1343D01*
X1753Y1342D02*
X1786Y1342D01*
X1755Y1341D02*
X1784Y1341D01*
X1757Y1340D02*
X1782Y1340D01*
X1755Y1316D02*
X1784Y1316D01*
X1753Y1315D02*
X1787Y1315D01*
X1751Y1314D02*
X1788Y1314D01*
X1750Y1313D02*
X1790Y1313D01*
X1749Y1312D02*
X1791Y1312D01*
X1748Y1311D02*
X1791Y1311D01*
X1747Y1310D02*
X1792Y1310D01*
X1746Y1309D02*
X1793Y1309D01*
X1745Y1308D02*
X1794Y1308D01*
X1745Y1307D02*
X1795Y1307D01*
X1744Y1306D02*
X1756Y1306D01*
X1763Y1306D02*
X1772Y1306D01*
X1783Y1306D02*
X1796Y1306D01*
X1743Y1305D02*
X1755Y1305D01*
X1763Y1305D02*
X1772Y1305D01*
X1784Y1305D02*
X1796Y1305D01*
X1743Y1304D02*
X1754Y1304D01*
X1763Y1304D02*
X1772Y1304D01*
X1785Y1304D02*
X1797Y1304D01*
X1743Y1303D02*
X1753Y1303D01*
X1763Y1303D02*
X1772Y1303D01*
X1786Y1303D02*
X1797Y1303D01*
X1742Y1302D02*
X1753Y1302D01*
X1763Y1302D02*
X1772Y1302D01*
X1787Y1302D02*
X1797Y1302D01*
X1742Y1301D02*
X1752Y1301D01*
X1763Y1301D02*
X1772Y1301D01*
X1788Y1301D02*
X1797Y1301D01*
X1742Y1300D02*
X1751Y1300D01*
X1763Y1300D02*
X1772Y1300D01*
X1788Y1300D02*
X1798Y1300D01*
X1742Y1299D02*
X1751Y1299D01*
X1763Y1299D02*
X1772Y1299D01*
X1788Y1299D02*
X1798Y1299D01*
X1742Y1298D02*
X1751Y1298D01*
X1763Y1298D02*
X1772Y1298D01*
X1789Y1298D02*
X1798Y1298D01*
X1742Y1297D02*
X1751Y1297D01*
X1763Y1297D02*
X1772Y1297D01*
X1789Y1297D02*
X1798Y1297D01*
X1742Y1296D02*
X1751Y1296D01*
X1763Y1296D02*
X1772Y1296D01*
X1789Y1296D02*
X1798Y1296D01*
X1742Y1295D02*
X1751Y1295D01*
X1763Y1295D02*
X1772Y1295D01*
X1789Y1295D02*
X1798Y1295D01*
X1742Y1294D02*
X1751Y1294D01*
X1763Y1294D02*
X1772Y1294D01*
X1789Y1294D02*
X1798Y1294D01*
X1742Y1293D02*
X1751Y1293D01*
X1763Y1293D02*
X1772Y1293D01*
X1789Y1293D02*
X1798Y1293D01*
X1742Y1292D02*
X1751Y1292D01*
X1763Y1292D02*
X1772Y1292D01*
X1789Y1292D02*
X1798Y1292D01*
X1742Y1291D02*
X1751Y1291D01*
X1763Y1291D02*
X1772Y1291D01*
X1789Y1291D02*
X1798Y1291D01*
X1742Y1290D02*
X1751Y1290D01*
X1763Y1290D02*
X1772Y1290D01*
X1789Y1290D02*
X1798Y1290D01*
X1742Y1289D02*
X1751Y1289D01*
X1763Y1289D02*
X1772Y1289D01*
X1789Y1289D02*
X1798Y1289D01*
X1742Y1288D02*
X1751Y1288D01*
X1763Y1288D02*
X1772Y1288D01*
X1789Y1288D02*
X1798Y1288D01*
X1742Y1287D02*
X1751Y1287D01*
X1763Y1287D02*
X1772Y1287D01*
X1789Y1287D02*
X1798Y1287D01*
X1742Y1286D02*
X1751Y1286D01*
X1763Y1286D02*
X1772Y1286D01*
X1789Y1286D02*
X1798Y1286D01*
X1742Y1285D02*
X1751Y1285D01*
X1763Y1285D02*
X1772Y1285D01*
X1788Y1285D02*
X1798Y1285D01*
X1742Y1284D02*
X1751Y1284D01*
X1763Y1284D02*
X1772Y1284D01*
X1788Y1284D02*
X1798Y1284D01*
X1742Y1283D02*
X1751Y1283D01*
X1763Y1283D02*
X1772Y1283D01*
X1788Y1283D02*
X1797Y1283D01*
X1742Y1282D02*
X1751Y1282D01*
X1763Y1282D02*
X1772Y1282D01*
X1787Y1282D02*
X1797Y1282D01*
X1742Y1281D02*
X1751Y1281D01*
X1763Y1281D02*
X1772Y1281D01*
X1786Y1281D02*
X1797Y1281D01*
X1742Y1280D02*
X1751Y1280D01*
X1763Y1280D02*
X1772Y1280D01*
X1786Y1280D02*
X1796Y1280D01*
X1742Y1279D02*
X1751Y1279D01*
X1763Y1279D02*
X1772Y1279D01*
X1785Y1279D02*
X1796Y1279D01*
X1742Y1278D02*
X1751Y1278D01*
X1763Y1278D02*
X1772Y1278D01*
X1783Y1278D02*
X1795Y1278D01*
X1742Y1277D02*
X1751Y1277D01*
X1763Y1277D02*
X1795Y1277D01*
X1742Y1276D02*
X1751Y1276D01*
X1763Y1276D02*
X1794Y1276D01*
X1742Y1275D02*
X1751Y1275D01*
X1763Y1275D02*
X1793Y1275D01*
X1742Y1274D02*
X1751Y1274D01*
X1763Y1274D02*
X1792Y1274D01*
X1742Y1273D02*
X1751Y1273D01*
X1763Y1273D02*
X1791Y1273D01*
X1742Y1272D02*
X1751Y1272D01*
X1763Y1272D02*
X1791Y1272D01*
X1742Y1271D02*
X1751Y1271D01*
X1763Y1271D02*
X1789Y1271D01*
X1742Y1270D02*
X1750Y1270D01*
X1764Y1270D02*
X1788Y1270D01*
X1743Y1269D02*
X1750Y1269D01*
X1764Y1269D02*
X1787Y1269D01*
X1744Y1268D02*
X1749Y1268D01*
X1765Y1268D02*
X1784Y1268D01*
X1744Y1244D02*
X1795Y1244D01*
X1743Y1243D02*
X1796Y1243D01*
X1742Y1242D02*
X1797Y1242D01*
X1742Y1241D02*
X1797Y1241D01*
X1742Y1240D02*
X1798Y1240D01*
X1742Y1239D02*
X1797Y1239D01*
X1742Y1238D02*
X1797Y1238D01*
X1743Y1237D02*
X1797Y1237D01*
X1744Y1236D02*
X1796Y1236D01*
X1746Y1235D02*
X1794Y1235D01*
X1779Y1234D02*
X1790Y1234D01*
X1779Y1233D02*
X1790Y1233D01*
X1780Y1232D02*
X1791Y1232D01*
X1780Y1231D02*
X1792Y1231D01*
X1781Y1230D02*
X1792Y1230D01*
X1782Y1229D02*
X1793Y1229D01*
X1782Y1228D02*
X1793Y1228D01*
X1783Y1227D02*
X1794Y1227D01*
X1784Y1226D02*
X1795Y1226D01*
X1784Y1225D02*
X1795Y1225D01*
X1785Y1224D02*
X1796Y1224D01*
X1786Y1223D02*
X1796Y1223D01*
X1786Y1222D02*
X1797Y1222D01*
X1787Y1221D02*
X1797Y1221D01*
X1788Y1220D02*
X1797Y1220D01*
X1788Y1219D02*
X1798Y1219D01*
X1789Y1218D02*
X1798Y1218D01*
X1789Y1217D02*
X1798Y1217D01*
X1789Y1216D02*
X1798Y1216D01*
X1789Y1215D02*
X1798Y1215D01*
X1789Y1214D02*
X1798Y1214D01*
X1789Y1213D02*
X1798Y1213D01*
X1789Y1212D02*
X1798Y1212D01*
X1788Y1211D02*
X1798Y1211D01*
X1788Y1210D02*
X1798Y1210D01*
X1788Y1209D02*
X1797Y1209D01*
X1787Y1208D02*
X1797Y1208D01*
X1785Y1207D02*
X1797Y1207D01*
X1769Y1206D02*
X1797Y1206D01*
X1746Y1205D02*
X1796Y1205D01*
X1744Y1204D02*
X1796Y1204D01*
X1743Y1203D02*
X1795Y1203D01*
X1742Y1202D02*
X1794Y1202D01*
X1742Y1201D02*
X1793Y1201D01*
X1742Y1200D02*
X1792Y1200D01*
X1742Y1199D02*
X1791Y1199D01*
X1742Y1198D02*
X1789Y1198D01*
X1743Y1197D02*
X1787Y1197D01*
X1744Y1196D02*
X1770Y1196D01*
X1744Y1172D02*
X1817Y1172D01*
X1743Y1171D02*
X1818Y1171D01*
X1742Y1170D02*
X1818Y1170D01*
X1742Y1169D02*
X1819Y1169D01*
X1742Y1168D02*
X1819Y1168D01*
X1742Y1167D02*
X1819Y1167D01*
X1742Y1166D02*
X1818Y1166D01*
X1743Y1165D02*
X1818Y1165D01*
X1744Y1164D02*
X1817Y1164D01*
X1746Y1163D02*
X1815Y1163D01*
X1769Y1162D02*
X1792Y1162D01*
X1768Y1161D02*
X1792Y1161D01*
X1767Y1160D02*
X1793Y1160D01*
X1767Y1159D02*
X1779Y1159D01*
X1782Y1159D02*
X1794Y1159D01*
X1766Y1158D02*
X1778Y1158D01*
X1783Y1158D02*
X1795Y1158D01*
X1765Y1157D02*
X1777Y1157D01*
X1783Y1157D02*
X1796Y1157D01*
X1764Y1156D02*
X1776Y1156D01*
X1784Y1156D02*
X1797Y1156D01*
X1763Y1155D02*
X1775Y1155D01*
X1785Y1155D02*
X1798Y1155D01*
X1762Y1154D02*
X1775Y1154D01*
X1786Y1154D02*
X1798Y1154D01*
X1761Y1153D02*
X1774Y1153D01*
X1787Y1153D02*
X1799Y1153D01*
X1761Y1152D02*
X1773Y1152D01*
X1788Y1152D02*
X1800Y1152D01*
X1760Y1151D02*
X1772Y1151D01*
X1789Y1151D02*
X1801Y1151D01*
X1759Y1150D02*
X1771Y1150D01*
X1789Y1150D02*
X1802Y1150D01*
X1758Y1149D02*
X1770Y1149D01*
X1790Y1149D02*
X1803Y1149D01*
X1757Y1148D02*
X1769Y1148D01*
X1791Y1148D02*
X1804Y1148D01*
X1756Y1147D02*
X1769Y1147D01*
X1792Y1147D02*
X1804Y1147D01*
X1755Y1146D02*
X1768Y1146D01*
X1793Y1146D02*
X1805Y1146D01*
X1755Y1145D02*
X1767Y1145D01*
X1794Y1145D02*
X1806Y1145D01*
X1754Y1144D02*
X1766Y1144D01*
X1795Y1144D02*
X1807Y1144D01*
X1753Y1143D02*
X1765Y1143D01*
X1795Y1143D02*
X1808Y1143D01*
X1752Y1142D02*
X1764Y1142D01*
X1796Y1142D02*
X1809Y1142D01*
X1751Y1141D02*
X1764Y1141D01*
X1797Y1141D02*
X1810Y1141D01*
X1750Y1140D02*
X1763Y1140D01*
X1798Y1140D02*
X1810Y1140D01*
X1749Y1139D02*
X1762Y1139D01*
X1799Y1139D02*
X1811Y1139D01*
X1749Y1138D02*
X1761Y1138D01*
X1800Y1138D02*
X1812Y1138D01*
X1748Y1137D02*
X1760Y1137D01*
X1801Y1137D02*
X1813Y1137D01*
X1747Y1136D02*
X1759Y1136D01*
X1801Y1136D02*
X1814Y1136D01*
X1746Y1135D02*
X1758Y1135D01*
X1802Y1135D02*
X1815Y1135D01*
X1745Y1134D02*
X1758Y1134D01*
X1803Y1134D02*
X1816Y1134D01*
X1744Y1133D02*
X1757Y1133D01*
X1804Y1133D02*
X1816Y1133D01*
X1743Y1132D02*
X1756Y1132D01*
X1805Y1132D02*
X1817Y1132D01*
X1743Y1131D02*
X1755Y1131D01*
X1806Y1131D02*
X1818Y1131D01*
X1742Y1130D02*
X1754Y1130D01*
X1807Y1130D02*
X1818Y1130D01*
X1742Y1129D02*
X1753Y1129D01*
X1807Y1129D02*
X1819Y1129D01*
X1742Y1128D02*
X1752Y1128D01*
X1808Y1128D02*
X1819Y1128D01*
X1742Y1127D02*
X1752Y1127D01*
X1809Y1127D02*
X1819Y1127D01*
X1742Y1126D02*
X1751Y1126D01*
X1810Y1126D02*
X1818Y1126D01*
X1743Y1125D02*
X1750Y1125D01*
X1811Y1125D02*
X1818Y1125D01*
X1744Y1124D02*
X1749Y1124D01*
X1812Y1124D02*
X1816Y1124D01*
X1794Y1100D02*
X1817Y1100D01*
X1792Y1099D02*
X1818Y1099D01*
X1789Y1098D02*
X1818Y1098D01*
X1787Y1097D02*
X1819Y1097D01*
X1784Y1096D02*
X1819Y1096D01*
X1782Y1095D02*
X1819Y1095D01*
X1779Y1094D02*
X1818Y1094D01*
X1776Y1093D02*
X1818Y1093D01*
X1774Y1092D02*
X1817Y1092D01*
X1771Y1091D02*
X1815Y1091D01*
X1769Y1090D02*
X1796Y1090D01*
X1766Y1089D02*
X1793Y1089D01*
X1764Y1088D02*
X1791Y1088D01*
X1761Y1087D02*
X1788Y1087D01*
X1758Y1086D02*
X1785Y1086D01*
X1756Y1085D02*
X1783Y1085D01*
X1753Y1084D02*
X1780Y1084D01*
X1751Y1083D02*
X1778Y1083D01*
X1748Y1082D02*
X1775Y1082D01*
X1746Y1081D02*
X1773Y1081D01*
X1744Y1080D02*
X1770Y1080D01*
X1743Y1079D02*
X1768Y1079D01*
X1742Y1078D02*
X1765Y1078D01*
X1742Y1077D02*
X1762Y1077D01*
X1742Y1076D02*
X1761Y1076D01*
X1742Y1075D02*
X1763Y1075D01*
X1742Y1074D02*
X1765Y1074D01*
X1743Y1073D02*
X1768Y1073D01*
X1744Y1072D02*
X1770Y1072D01*
X1746Y1071D02*
X1773Y1071D01*
X1748Y1070D02*
X1775Y1070D01*
X1751Y1069D02*
X1778Y1069D01*
X1754Y1068D02*
X1780Y1068D01*
X1756Y1067D02*
X1783Y1067D01*
X1759Y1066D02*
X1786Y1066D01*
X1761Y1065D02*
X1788Y1065D01*
X1764Y1064D02*
X1791Y1064D01*
X1766Y1063D02*
X1793Y1063D01*
X1769Y1062D02*
X1796Y1062D01*
X1772Y1061D02*
X1815Y1061D01*
X1774Y1060D02*
X1817Y1060D01*
X1777Y1059D02*
X1818Y1059D01*
X1779Y1058D02*
X1818Y1058D01*
X1782Y1057D02*
X1819Y1057D01*
X1784Y1056D02*
X1819Y1056D01*
X1787Y1055D02*
X1819Y1055D01*
X1789Y1054D02*
X1818Y1054D01*
X1792Y1053D02*
X1818Y1053D01*
X1795Y1052D02*
X1816Y1052D01*
X1744Y1028D02*
X1819Y1028D01*
X1743Y1027D02*
X1819Y1027D01*
X1742Y1026D02*
X1819Y1026D01*
X1742Y1025D02*
X1819Y1025D01*
X1742Y1024D02*
X1819Y1024D01*
X1742Y1023D02*
X1819Y1023D01*
X1742Y1022D02*
X1819Y1022D01*
X1743Y1021D02*
X1819Y1021D01*
X1744Y1020D02*
X1819Y1020D01*
X1746Y1019D02*
X1819Y1019D01*
X1805Y1018D02*
X1819Y1018D01*
X1803Y1017D02*
X1819Y1017D01*
X1802Y1016D02*
X1818Y1016D01*
X1800Y1015D02*
X1817Y1015D01*
X1799Y1014D02*
X1816Y1014D01*
X1797Y1013D02*
X1814Y1013D01*
X1796Y1012D02*
X1813Y1012D01*
X1795Y1011D02*
X1811Y1011D01*
X1793Y1010D02*
X1810Y1010D01*
X1789Y1009D02*
X1808Y1009D01*
X1786Y1008D02*
X1807Y1008D01*
X1785Y1007D02*
X1806Y1007D01*
X1785Y1006D02*
X1804Y1006D01*
X1784Y1005D02*
X1803Y1005D01*
X1784Y1004D02*
X1802Y1004D01*
X1784Y1003D02*
X1803Y1003D01*
X1785Y1002D02*
X1804Y1002D01*
X1785Y1001D02*
X1806Y1001D01*
X1786Y1000D02*
X1807Y1000D01*
X1792Y999D02*
X1809Y999D01*
X1793Y998D02*
X1810Y998D01*
X1795Y997D02*
X1811Y997D01*
X1796Y996D02*
X1813Y996D01*
X1798Y995D02*
X1814Y995D01*
X1799Y994D02*
X1816Y994D01*
X1801Y993D02*
X1817Y993D01*
X1802Y992D02*
X1819Y992D01*
X1803Y991D02*
X1819Y991D01*
X1805Y990D02*
X1819Y990D01*
X1746Y989D02*
X1819Y989D01*
X1744Y988D02*
X1819Y988D01*
X1743Y987D02*
X1819Y987D01*
X1742Y986D02*
X1819Y986D01*
X1742Y985D02*
X1819Y985D01*
X1742Y984D02*
X1819Y984D01*
X1742Y983D02*
X1819Y983D01*
X1742Y982D02*
X1819Y982D01*
X1743Y981D02*
X1819Y981D01*
X1744Y980D02*
X1819Y980D01*
D02*
G04 End of Copper1*
M02*