; NON-PLATED HOLES START AT T1
; THROUGH (PLATED) HOLES START AT T100
M48
INCH
T1C0.043307
T100C0.090000
T101C0.031497
T102C0.038000
T103C0.086614
T104C0.036000
%
T1
X004418Y014033
X004418Y012261
X004417Y005022
X004417Y003250
T100
X009523Y003664
X014279Y016364
X014263Y003664
X009539Y016364
T101
X014386Y009514
X013401Y009514
T102
X007401Y012514
X007401Y009514
X007401Y010514
X016401Y004514
X007401Y013514
X016401Y003514
T103
X004458Y015431
X004456Y001852
X004458Y010864
X004456Y006419
T104
X005403Y012704
X005403Y011769
X012401Y014514
X011417Y014514
X012386Y004734
X012401Y015294
X011417Y015294
X005401Y005514
X011401Y004734
X005403Y014525
X012386Y005514
X005401Y004580
X011401Y005514
X005403Y013591
X005401Y003692
X005401Y002758
T00
M30
