G04 MADE WITH FRITZING*
G04 WWW.FRITZING.ORG*
G04 DOUBLE SIDED*
G04 HOLES PLATED*
G04 CONTOUR ON CENTER OF CONTOUR VECTOR*
%ASAXBY*%
%FSLAX23Y23*%
%MOIN*%
%OFA0B0*%
%SFA1.0B1.0*%
%ADD10C,0.076000*%
%ADD11C,0.120000*%
%ADD12C,0.088000*%
%ADD13C,0.072992*%
%ADD14C,0.084000*%
%ADD15C,0.116614*%
%ADD16C,0.053307*%
%ADD17R,0.072992X0.072992*%
%LNMASK0*%
G90*
G70*
G54D10*
X1240Y1451D03*
X1142Y1451D03*
X1142Y1529D03*
X1240Y1529D03*
G54D11*
X1428Y1636D03*
X954Y1636D03*
G54D10*
X1240Y1451D03*
X1142Y1451D03*
X1142Y1529D03*
X1240Y1529D03*
G54D11*
X1428Y1636D03*
X954Y1636D03*
G54D10*
X1240Y1451D03*
X1142Y1451D03*
X1142Y1529D03*
X1240Y1529D03*
G54D11*
X1428Y1636D03*
X954Y1636D03*
G54D10*
X1140Y551D03*
X1239Y551D03*
X1239Y473D03*
X1140Y473D03*
G54D11*
X952Y366D03*
X1426Y366D03*
G54D10*
X1140Y551D03*
X1239Y551D03*
X1239Y473D03*
X1140Y473D03*
G54D11*
X952Y366D03*
X1426Y366D03*
G54D10*
X1140Y551D03*
X1239Y551D03*
X1239Y473D03*
X1140Y473D03*
G54D11*
X952Y366D03*
X1426Y366D03*
G54D12*
X740Y1351D03*
X740Y1251D03*
X1640Y351D03*
X1640Y451D03*
X740Y1051D03*
X740Y951D03*
G54D13*
X1439Y951D03*
X1340Y951D03*
G54D14*
X540Y276D03*
X540Y369D03*
X540Y458D03*
X540Y551D03*
G54D15*
X446Y642D03*
X446Y185D03*
G54D16*
X442Y325D03*
X442Y502D03*
G54D14*
X540Y276D03*
X540Y369D03*
X540Y458D03*
X540Y551D03*
G54D15*
X446Y642D03*
X446Y185D03*
G54D16*
X442Y325D03*
X442Y502D03*
G54D14*
X540Y276D03*
X540Y369D03*
X540Y458D03*
X540Y551D03*
G54D15*
X446Y642D03*
X446Y185D03*
G54D16*
X442Y325D03*
X442Y502D03*
G54D14*
X540Y1177D03*
X540Y1270D03*
X540Y1359D03*
X540Y1453D03*
G54D15*
X446Y1543D03*
X446Y1086D03*
G54D16*
X442Y1226D03*
X442Y1403D03*
G54D14*
X540Y1177D03*
X540Y1270D03*
X540Y1359D03*
X540Y1453D03*
G54D15*
X446Y1543D03*
X446Y1086D03*
G54D16*
X442Y1226D03*
X442Y1403D03*
G54D14*
X540Y1177D03*
X540Y1270D03*
X540Y1359D03*
X540Y1453D03*
G54D15*
X446Y1543D03*
X446Y1086D03*
G54D16*
X442Y1226D03*
X442Y1403D03*
G54D17*
X1439Y951D03*
G04 End of Mask0*
M02*