G04 MADE WITH FRITZING*
G04 WWW.FRITZING.ORG*
G04 DOUBLE SIDED*
G04 HOLES PLATED*
G04 CONTOUR ON CENTER OF CONTOUR VECTOR*
%ASAXBY*%
%FSLAX23Y23*%
%MOIN*%
%OFA0B0*%
%SFA1.0B1.0*%
%ADD10C,0.075000*%
%ADD11C,0.066000*%
%ADD12C,0.110000*%
%ADD13C,0.078000*%
%ADD14C,0.062992*%
%ADD15C,0.074000*%
%ADD16C,0.106614*%
%ADD17R,0.062992X0.062992*%
%ADD18C,0.048000*%
%ADD19R,0.001000X0.001000*%
%LNCOPPER1*%
G90*
G70*
G54D10*
X115Y191D03*
X1742Y1698D03*
X566Y1549D03*
X1427Y1435D03*
X1034Y1392D03*
X433Y1306D03*
X1054Y1707D03*
X1544Y1638D03*
X1697Y539D03*
X1349Y245D03*
G54D11*
X1240Y1451D03*
X1142Y1451D03*
X1142Y1529D03*
X1240Y1529D03*
G54D12*
X1428Y1636D03*
X954Y1636D03*
G54D11*
X1240Y1451D03*
X1142Y1451D03*
X1142Y1529D03*
X1240Y1529D03*
G54D12*
X1428Y1636D03*
X954Y1636D03*
G54D11*
X1240Y1451D03*
X1142Y1451D03*
X1142Y1529D03*
X1240Y1529D03*
G54D12*
X1428Y1636D03*
X954Y1636D03*
G54D11*
X1140Y551D03*
X1239Y551D03*
X1239Y473D03*
X1140Y473D03*
G54D12*
X952Y366D03*
X1426Y366D03*
G54D11*
X1140Y551D03*
X1239Y551D03*
X1239Y473D03*
X1140Y473D03*
G54D12*
X952Y366D03*
X1426Y366D03*
G54D11*
X1140Y551D03*
X1239Y551D03*
X1239Y473D03*
X1140Y473D03*
G54D12*
X952Y366D03*
X1426Y366D03*
G54D13*
X740Y1351D03*
X740Y1251D03*
X1640Y351D03*
X1640Y451D03*
X740Y1051D03*
X740Y951D03*
G54D14*
X1439Y951D03*
X1340Y951D03*
G54D15*
X540Y276D03*
X540Y369D03*
X540Y458D03*
X540Y551D03*
G54D16*
X446Y642D03*
X446Y185D03*
G54D15*
X540Y276D03*
X540Y369D03*
X540Y458D03*
X540Y551D03*
G54D16*
X446Y642D03*
X446Y185D03*
G54D15*
X540Y276D03*
X540Y369D03*
X540Y458D03*
X540Y551D03*
G54D16*
X446Y642D03*
X446Y185D03*
G54D15*
X540Y1177D03*
X540Y1270D03*
X540Y1359D03*
X540Y1453D03*
G54D16*
X446Y1543D03*
X446Y1086D03*
G54D15*
X540Y1177D03*
X540Y1270D03*
X540Y1359D03*
X540Y1453D03*
G54D16*
X446Y1543D03*
X446Y1086D03*
G54D15*
X540Y1177D03*
X540Y1270D03*
X540Y1359D03*
X540Y1453D03*
G54D16*
X446Y1543D03*
X446Y1086D03*
G54D17*
X1439Y951D03*
G54D18*
X941Y1052D02*
X939Y1352D01*
D02*
X941Y1052D02*
X941Y1052D01*
D02*
X939Y1452D02*
X1104Y1515D01*
D02*
X939Y1352D02*
X939Y1452D01*
D02*
X781Y1052D02*
X941Y1052D01*
D02*
X1140Y953D02*
X1142Y1411D01*
D02*
X781Y952D02*
X1140Y953D01*
D02*
X699Y1353D02*
X581Y1358D01*
D02*
X1541Y1552D02*
X1280Y1532D01*
D02*
X739Y250D02*
X739Y51D01*
D02*
X1541Y651D02*
X1140Y651D01*
D02*
X1541Y352D02*
X1541Y552D01*
D02*
X1541Y552D02*
X1279Y551D01*
D02*
X1599Y352D02*
X1541Y352D01*
D02*
X1140Y352D02*
X841Y352D01*
D02*
X841Y552D02*
X580Y551D01*
D02*
X841Y352D02*
X841Y552D01*
D02*
X1140Y433D02*
X1140Y352D01*
D02*
X739Y51D02*
X1840Y51D01*
D02*
X1140Y651D02*
X1140Y592D01*
D02*
X1840Y651D02*
X1541Y651D01*
D02*
X1840Y51D02*
X1840Y651D01*
D02*
X580Y271D02*
X739Y250D01*
D02*
X1541Y1252D02*
X1541Y1552D01*
D02*
X1477Y952D02*
X1541Y952D01*
D02*
X1541Y952D02*
X1541Y1252D01*
D02*
X1340Y989D02*
X1339Y1351D01*
D02*
X1339Y1451D02*
X1280Y1451D01*
D02*
X1339Y1351D02*
X1339Y1451D01*
D02*
X1740Y452D02*
X1740Y151D01*
D02*
X1740Y151D02*
X1240Y151D01*
D02*
X1240Y151D02*
X1239Y433D01*
D02*
X1681Y452D02*
X1740Y452D01*
D02*
X580Y1267D02*
X699Y1255D01*
D02*
X739Y1652D02*
X240Y1653D01*
D02*
X740Y1393D02*
X739Y1652D01*
D02*
X241Y452D02*
X500Y457D01*
D02*
X240Y1653D02*
X241Y452D01*
D02*
X139Y352D02*
X500Y368D01*
D02*
X141Y1751D02*
X139Y352D01*
D02*
X841Y1251D02*
X841Y1752D01*
D02*
X841Y1752D02*
X141Y1751D01*
D02*
X781Y1251D02*
X841Y1251D01*
D02*
X1240Y1752D02*
X1541Y1752D01*
D02*
X1541Y1752D02*
X1641Y1752D01*
D02*
X1641Y1752D02*
X1641Y751D01*
D02*
X1240Y1570D02*
X1240Y1752D01*
D02*
X1641Y751D02*
X341Y751D01*
D02*
X1240Y1411D02*
X1240Y851D01*
D02*
X540Y851D02*
X540Y1137D01*
D02*
X1240Y851D02*
X540Y851D01*
D02*
X340Y1453D02*
X500Y1453D01*
D02*
X341Y751D02*
X340Y1453D01*
G36*
X40Y1777D02*
X40Y319D01*
X130Y319D01*
X130Y321D01*
X124Y321D01*
X124Y323D01*
X120Y323D01*
X120Y325D01*
X118Y325D01*
X118Y327D01*
X116Y327D01*
X116Y329D01*
X114Y329D01*
X114Y331D01*
X112Y331D01*
X112Y333D01*
X110Y333D01*
X110Y337D01*
X108Y337D01*
X108Y341D01*
X106Y341D01*
X106Y1531D01*
X108Y1531D01*
X108Y1777D01*
X40Y1777D01*
G37*
D02*
G36*
X474Y333D02*
X474Y321D01*
X472Y321D01*
X472Y315D01*
X470Y315D01*
X470Y311D01*
X468Y311D01*
X468Y307D01*
X466Y307D01*
X466Y305D01*
X464Y305D01*
X464Y303D01*
X462Y303D01*
X462Y301D01*
X460Y301D01*
X460Y299D01*
X456Y299D01*
X456Y297D01*
X454Y297D01*
X454Y295D01*
X448Y295D01*
X448Y293D01*
X498Y293D01*
X498Y295D01*
X500Y295D01*
X500Y299D01*
X502Y299D01*
X502Y303D01*
X504Y303D01*
X504Y305D01*
X506Y305D01*
X506Y307D01*
X508Y307D01*
X508Y309D01*
X510Y309D01*
X510Y311D01*
X512Y311D01*
X512Y313D01*
X514Y313D01*
X514Y333D01*
X474Y333D01*
G37*
D02*
G36*
X370Y329D02*
X370Y327D01*
X322Y327D01*
X322Y325D01*
X274Y325D01*
X274Y323D01*
X226Y323D01*
X226Y321D01*
X180Y321D01*
X180Y319D01*
X410Y319D01*
X410Y329D01*
X370Y329D01*
G37*
D02*
G36*
X40Y319D02*
X40Y317D01*
X412Y317D01*
X412Y319D01*
X40Y319D01*
G37*
D02*
G36*
X40Y319D02*
X40Y317D01*
X412Y317D01*
X412Y319D01*
X40Y319D01*
G37*
D02*
G36*
X40Y317D02*
X40Y293D01*
X436Y293D01*
X436Y295D01*
X430Y295D01*
X430Y297D01*
X426Y297D01*
X426Y299D01*
X424Y299D01*
X424Y301D01*
X422Y301D01*
X422Y303D01*
X420Y303D01*
X420Y305D01*
X418Y305D01*
X418Y307D01*
X416Y307D01*
X416Y309D01*
X414Y309D01*
X414Y313D01*
X412Y313D01*
X412Y317D01*
X40Y317D01*
G37*
D02*
G36*
X40Y293D02*
X40Y291D01*
X496Y291D01*
X496Y293D01*
X40Y293D01*
G37*
D02*
G36*
X40Y293D02*
X40Y291D01*
X496Y291D01*
X496Y293D01*
X40Y293D01*
G37*
D02*
G36*
X40Y291D02*
X40Y249D01*
X454Y249D01*
X454Y247D01*
X462Y247D01*
X462Y245D01*
X468Y245D01*
X468Y243D01*
X472Y243D01*
X472Y241D01*
X476Y241D01*
X476Y239D01*
X478Y239D01*
X478Y237D01*
X482Y237D01*
X482Y235D01*
X484Y235D01*
X484Y233D01*
X486Y233D01*
X486Y231D01*
X488Y231D01*
X488Y229D01*
X532Y229D01*
X532Y231D01*
X526Y231D01*
X526Y233D01*
X522Y233D01*
X522Y235D01*
X518Y235D01*
X518Y237D01*
X514Y237D01*
X514Y239D01*
X512Y239D01*
X512Y241D01*
X510Y241D01*
X510Y243D01*
X508Y243D01*
X508Y245D01*
X506Y245D01*
X506Y247D01*
X504Y247D01*
X504Y249D01*
X502Y249D01*
X502Y253D01*
X500Y253D01*
X500Y255D01*
X498Y255D01*
X498Y259D01*
X496Y259D01*
X496Y265D01*
X494Y265D01*
X494Y287D01*
X496Y287D01*
X496Y291D01*
X40Y291D01*
G37*
D02*
G36*
X40Y249D02*
X40Y123D01*
X432Y123D01*
X432Y125D01*
X426Y125D01*
X426Y127D01*
X420Y127D01*
X420Y129D01*
X416Y129D01*
X416Y131D01*
X414Y131D01*
X414Y133D01*
X410Y133D01*
X410Y135D01*
X408Y135D01*
X408Y137D01*
X406Y137D01*
X406Y139D01*
X404Y139D01*
X404Y141D01*
X402Y141D01*
X402Y143D01*
X400Y143D01*
X400Y145D01*
X398Y145D01*
X398Y147D01*
X396Y147D01*
X396Y149D01*
X394Y149D01*
X394Y151D01*
X392Y151D01*
X392Y155D01*
X390Y155D01*
X390Y159D01*
X388Y159D01*
X388Y163D01*
X386Y163D01*
X386Y169D01*
X384Y169D01*
X384Y177D01*
X382Y177D01*
X382Y193D01*
X384Y193D01*
X384Y201D01*
X386Y201D01*
X386Y207D01*
X388Y207D01*
X388Y211D01*
X390Y211D01*
X390Y215D01*
X392Y215D01*
X392Y219D01*
X394Y219D01*
X394Y221D01*
X396Y221D01*
X396Y225D01*
X398Y225D01*
X398Y227D01*
X400Y227D01*
X400Y229D01*
X402Y229D01*
X402Y231D01*
X404Y231D01*
X404Y233D01*
X406Y233D01*
X406Y235D01*
X410Y235D01*
X410Y237D01*
X412Y237D01*
X412Y239D01*
X416Y239D01*
X416Y241D01*
X420Y241D01*
X420Y243D01*
X424Y243D01*
X424Y245D01*
X430Y245D01*
X430Y247D01*
X438Y247D01*
X438Y249D01*
X40Y249D01*
G37*
D02*
G36*
X562Y237D02*
X562Y235D01*
X560Y235D01*
X560Y233D01*
X554Y233D01*
X554Y231D01*
X550Y231D01*
X550Y229D01*
X630Y229D01*
X630Y231D01*
X616Y231D01*
X616Y233D01*
X600Y233D01*
X600Y235D01*
X584Y235D01*
X584Y237D01*
X562Y237D01*
G37*
D02*
G36*
X490Y229D02*
X490Y227D01*
X646Y227D01*
X646Y229D01*
X490Y229D01*
G37*
D02*
G36*
X490Y229D02*
X490Y227D01*
X646Y227D01*
X646Y229D01*
X490Y229D01*
G37*
D02*
G36*
X492Y227D02*
X492Y225D01*
X494Y225D01*
X494Y223D01*
X496Y223D01*
X496Y221D01*
X498Y221D01*
X498Y217D01*
X500Y217D01*
X500Y215D01*
X502Y215D01*
X502Y211D01*
X504Y211D01*
X504Y205D01*
X506Y205D01*
X506Y199D01*
X508Y199D01*
X508Y171D01*
X506Y171D01*
X506Y165D01*
X504Y165D01*
X504Y161D01*
X502Y161D01*
X502Y157D01*
X500Y157D01*
X500Y153D01*
X498Y153D01*
X498Y149D01*
X496Y149D01*
X496Y147D01*
X494Y147D01*
X494Y145D01*
X492Y145D01*
X492Y143D01*
X490Y143D01*
X490Y141D01*
X488Y141D01*
X488Y139D01*
X486Y139D01*
X486Y137D01*
X484Y137D01*
X484Y135D01*
X482Y135D01*
X482Y133D01*
X478Y133D01*
X478Y131D01*
X474Y131D01*
X474Y129D01*
X470Y129D01*
X470Y127D01*
X466Y127D01*
X466Y125D01*
X460Y125D01*
X460Y123D01*
X706Y123D01*
X706Y221D01*
X694Y221D01*
X694Y223D01*
X678Y223D01*
X678Y225D01*
X662Y225D01*
X662Y227D01*
X492Y227D01*
G37*
D02*
G36*
X40Y123D02*
X40Y121D01*
X706Y121D01*
X706Y123D01*
X40Y123D01*
G37*
D02*
G36*
X40Y123D02*
X40Y121D01*
X706Y121D01*
X706Y123D01*
X40Y123D01*
G37*
D02*
G36*
X40Y121D02*
X40Y41D01*
X706Y41D01*
X706Y121D01*
X40Y121D01*
G37*
D02*
G36*
X176Y1717D02*
X176Y1687D01*
X742Y1687D01*
X742Y1685D01*
X752Y1685D01*
X752Y1683D01*
X756Y1683D01*
X756Y1681D01*
X758Y1681D01*
X758Y1679D01*
X762Y1679D01*
X762Y1677D01*
X764Y1677D01*
X764Y1675D01*
X766Y1675D01*
X766Y1671D01*
X768Y1671D01*
X768Y1669D01*
X770Y1669D01*
X770Y1665D01*
X772Y1665D01*
X772Y1655D01*
X774Y1655D01*
X774Y1383D01*
X776Y1383D01*
X776Y1381D01*
X778Y1381D01*
X778Y1379D01*
X780Y1379D01*
X780Y1377D01*
X782Y1377D01*
X782Y1373D01*
X784Y1373D01*
X784Y1369D01*
X786Y1369D01*
X786Y1363D01*
X788Y1363D01*
X788Y1353D01*
X808Y1353D01*
X808Y1717D01*
X176Y1717D01*
G37*
D02*
G36*
X176Y1687D02*
X176Y1525D01*
X174Y1525D01*
X174Y419D01*
X230Y419D01*
X230Y421D01*
X226Y421D01*
X226Y423D01*
X222Y423D01*
X222Y425D01*
X220Y425D01*
X220Y427D01*
X218Y427D01*
X218Y429D01*
X216Y429D01*
X216Y431D01*
X214Y431D01*
X214Y433D01*
X212Y433D01*
X212Y437D01*
X210Y437D01*
X210Y441D01*
X208Y441D01*
X208Y611D01*
X206Y611D01*
X206Y1659D01*
X208Y1659D01*
X208Y1665D01*
X210Y1665D01*
X210Y1669D01*
X212Y1669D01*
X212Y1673D01*
X214Y1673D01*
X214Y1675D01*
X216Y1675D01*
X216Y1677D01*
X218Y1677D01*
X218Y1679D01*
X220Y1679D01*
X220Y1681D01*
X224Y1681D01*
X224Y1683D01*
X228Y1683D01*
X228Y1685D01*
X236Y1685D01*
X236Y1687D01*
X176Y1687D01*
G37*
D02*
G36*
X442Y423D02*
X442Y421D01*
X342Y421D01*
X342Y419D01*
X510Y419D01*
X510Y423D01*
X442Y423D01*
G37*
D02*
G36*
X174Y419D02*
X174Y417D01*
X510Y417D01*
X510Y419D01*
X174Y419D01*
G37*
D02*
G36*
X174Y419D02*
X174Y417D01*
X510Y417D01*
X510Y419D01*
X174Y419D01*
G37*
D02*
G36*
X174Y417D02*
X174Y389D01*
X226Y389D01*
X226Y391D01*
X272Y391D01*
X272Y393D01*
X320Y393D01*
X320Y395D01*
X368Y395D01*
X368Y397D01*
X416Y397D01*
X416Y399D01*
X462Y399D01*
X462Y401D01*
X508Y401D01*
X508Y403D01*
X510Y403D01*
X510Y417D01*
X174Y417D01*
G37*
D02*
G36*
X1274Y1717D02*
X1274Y1567D01*
X1300Y1567D01*
X1300Y1569D01*
X1328Y1569D01*
X1328Y1571D01*
X1356Y1571D01*
X1356Y1573D01*
X1382Y1573D01*
X1382Y1593D01*
X1380Y1593D01*
X1380Y1595D01*
X1378Y1595D01*
X1378Y1597D01*
X1376Y1597D01*
X1376Y1601D01*
X1374Y1601D01*
X1374Y1603D01*
X1372Y1603D01*
X1372Y1607D01*
X1370Y1607D01*
X1370Y1611D01*
X1368Y1611D01*
X1368Y1615D01*
X1366Y1615D01*
X1366Y1621D01*
X1364Y1621D01*
X1364Y1635D01*
X1362Y1635D01*
X1362Y1637D01*
X1364Y1637D01*
X1364Y1651D01*
X1366Y1651D01*
X1366Y1657D01*
X1368Y1657D01*
X1368Y1663D01*
X1370Y1663D01*
X1370Y1667D01*
X1372Y1667D01*
X1372Y1669D01*
X1374Y1669D01*
X1374Y1673D01*
X1376Y1673D01*
X1376Y1675D01*
X1378Y1675D01*
X1378Y1677D01*
X1380Y1677D01*
X1380Y1679D01*
X1382Y1679D01*
X1382Y1681D01*
X1384Y1681D01*
X1384Y1683D01*
X1386Y1683D01*
X1386Y1685D01*
X1388Y1685D01*
X1388Y1687D01*
X1390Y1687D01*
X1390Y1689D01*
X1392Y1689D01*
X1392Y1691D01*
X1396Y1691D01*
X1396Y1693D01*
X1400Y1693D01*
X1400Y1695D01*
X1404Y1695D01*
X1404Y1697D01*
X1408Y1697D01*
X1408Y1717D01*
X1274Y1717D01*
G37*
D02*
G36*
X1674Y1777D02*
X1674Y1471D01*
X1784Y1471D01*
X1784Y1469D01*
X1790Y1469D01*
X1790Y1467D01*
X1794Y1467D01*
X1794Y1465D01*
X1798Y1465D01*
X1798Y1463D01*
X1800Y1463D01*
X1800Y1459D01*
X1802Y1459D01*
X1802Y1457D01*
X1804Y1457D01*
X1804Y1455D01*
X1806Y1455D01*
X1806Y1451D01*
X1808Y1451D01*
X1808Y1421D01*
X1806Y1421D01*
X1806Y1417D01*
X1804Y1417D01*
X1804Y1395D01*
X1806Y1395D01*
X1806Y1393D01*
X1808Y1393D01*
X1808Y1389D01*
X1810Y1389D01*
X1810Y1353D01*
X1808Y1353D01*
X1808Y1349D01*
X1806Y1349D01*
X1806Y1347D01*
X1804Y1347D01*
X1804Y1343D01*
X1802Y1343D01*
X1802Y1341D01*
X1800Y1341D01*
X1800Y1339D01*
X1798Y1339D01*
X1798Y1319D01*
X1800Y1319D01*
X1800Y1315D01*
X1802Y1315D01*
X1802Y1313D01*
X1804Y1313D01*
X1804Y1311D01*
X1806Y1311D01*
X1806Y1307D01*
X1808Y1307D01*
X1808Y1277D01*
X1806Y1277D01*
X1806Y1273D01*
X1804Y1273D01*
X1804Y1249D01*
X1806Y1249D01*
X1806Y1245D01*
X1808Y1245D01*
X1808Y1203D01*
X1806Y1203D01*
X1806Y1183D01*
X1818Y1183D01*
X1818Y1181D01*
X1822Y1181D01*
X1822Y1179D01*
X1826Y1179D01*
X1826Y1175D01*
X1828Y1175D01*
X1828Y1171D01*
X1830Y1171D01*
X1830Y1163D01*
X1828Y1163D01*
X1828Y1159D01*
X1826Y1159D01*
X1826Y1137D01*
X1828Y1137D01*
X1828Y1133D01*
X1830Y1133D01*
X1830Y1123D01*
X1828Y1123D01*
X1828Y1099D01*
X1830Y1099D01*
X1830Y1091D01*
X1828Y1091D01*
X1828Y1087D01*
X1826Y1087D01*
X1826Y1065D01*
X1828Y1065D01*
X1828Y1061D01*
X1830Y1061D01*
X1830Y1029D01*
X1836Y1029D01*
X1836Y1027D01*
X1834Y1027D01*
X1834Y1025D01*
X1832Y1025D01*
X1832Y1023D01*
X1830Y1023D01*
X1830Y983D01*
X1834Y983D01*
X1834Y981D01*
X1836Y981D01*
X1836Y979D01*
X1830Y979D01*
X1830Y969D01*
X1918Y969D01*
X1918Y1777D01*
X1674Y1777D01*
G37*
D02*
G36*
X274Y1619D02*
X274Y625D01*
X276Y625D01*
X276Y579D01*
X434Y579D01*
X434Y581D01*
X426Y581D01*
X426Y583D01*
X422Y583D01*
X422Y585D01*
X418Y585D01*
X418Y587D01*
X414Y587D01*
X414Y589D01*
X412Y589D01*
X412Y591D01*
X408Y591D01*
X408Y593D01*
X406Y593D01*
X406Y595D01*
X404Y595D01*
X404Y597D01*
X402Y597D01*
X402Y599D01*
X400Y599D01*
X400Y601D01*
X398Y601D01*
X398Y603D01*
X396Y603D01*
X396Y605D01*
X394Y605D01*
X394Y609D01*
X392Y609D01*
X392Y611D01*
X390Y611D01*
X390Y615D01*
X388Y615D01*
X388Y619D01*
X386Y619D01*
X386Y625D01*
X384Y625D01*
X384Y635D01*
X382Y635D01*
X382Y649D01*
X384Y649D01*
X384Y659D01*
X386Y659D01*
X386Y665D01*
X388Y665D01*
X388Y669D01*
X390Y669D01*
X390Y673D01*
X392Y673D01*
X392Y675D01*
X394Y675D01*
X394Y679D01*
X396Y679D01*
X396Y681D01*
X398Y681D01*
X398Y683D01*
X400Y683D01*
X400Y685D01*
X402Y685D01*
X402Y687D01*
X404Y687D01*
X404Y689D01*
X406Y689D01*
X406Y691D01*
X408Y691D01*
X408Y693D01*
X412Y693D01*
X412Y695D01*
X414Y695D01*
X414Y697D01*
X418Y697D01*
X418Y717D01*
X332Y717D01*
X332Y719D01*
X326Y719D01*
X326Y721D01*
X324Y721D01*
X324Y723D01*
X320Y723D01*
X320Y725D01*
X318Y725D01*
X318Y727D01*
X316Y727D01*
X316Y729D01*
X314Y729D01*
X314Y731D01*
X312Y731D01*
X312Y735D01*
X310Y735D01*
X310Y739D01*
X308Y739D01*
X308Y749D01*
X306Y749D01*
X306Y1461D01*
X308Y1461D01*
X308Y1467D01*
X310Y1467D01*
X310Y1471D01*
X312Y1471D01*
X312Y1473D01*
X314Y1473D01*
X314Y1475D01*
X316Y1475D01*
X316Y1477D01*
X318Y1477D01*
X318Y1479D01*
X320Y1479D01*
X320Y1481D01*
X324Y1481D01*
X324Y1483D01*
X326Y1483D01*
X326Y1485D01*
X334Y1485D01*
X334Y1487D01*
X396Y1487D01*
X396Y1507D01*
X394Y1507D01*
X394Y1509D01*
X392Y1509D01*
X392Y1513D01*
X390Y1513D01*
X390Y1517D01*
X388Y1517D01*
X388Y1521D01*
X386Y1521D01*
X386Y1527D01*
X384Y1527D01*
X384Y1537D01*
X382Y1537D01*
X382Y1551D01*
X384Y1551D01*
X384Y1559D01*
X386Y1559D01*
X386Y1565D01*
X388Y1565D01*
X388Y1569D01*
X390Y1569D01*
X390Y1573D01*
X392Y1573D01*
X392Y1577D01*
X394Y1577D01*
X394Y1579D01*
X396Y1579D01*
X396Y1581D01*
X398Y1581D01*
X398Y1585D01*
X400Y1585D01*
X400Y1587D01*
X402Y1587D01*
X402Y1589D01*
X406Y1589D01*
X406Y1591D01*
X408Y1591D01*
X408Y1593D01*
X410Y1593D01*
X410Y1595D01*
X412Y1595D01*
X412Y1597D01*
X416Y1597D01*
X416Y1599D01*
X420Y1599D01*
X420Y1619D01*
X274Y1619D01*
G37*
D02*
G36*
X1674Y1471D02*
X1674Y1113D01*
X1742Y1113D01*
X1742Y1115D01*
X1738Y1115D01*
X1738Y1117D01*
X1736Y1117D01*
X1736Y1119D01*
X1734Y1119D01*
X1734Y1123D01*
X1732Y1123D01*
X1732Y1133D01*
X1734Y1133D01*
X1734Y1137D01*
X1736Y1137D01*
X1736Y1159D01*
X1734Y1159D01*
X1734Y1163D01*
X1732Y1163D01*
X1732Y1173D01*
X1734Y1173D01*
X1734Y1195D01*
X1732Y1195D01*
X1732Y1205D01*
X1734Y1205D01*
X1734Y1209D01*
X1736Y1209D01*
X1736Y1231D01*
X1734Y1231D01*
X1734Y1235D01*
X1732Y1235D01*
X1732Y1245D01*
X1734Y1245D01*
X1734Y1267D01*
X1732Y1267D01*
X1732Y1305D01*
X1734Y1305D01*
X1734Y1309D01*
X1736Y1309D01*
X1736Y1313D01*
X1738Y1313D01*
X1738Y1315D01*
X1740Y1315D01*
X1740Y1319D01*
X1742Y1319D01*
X1742Y1339D01*
X1740Y1339D01*
X1740Y1343D01*
X1738Y1343D01*
X1738Y1345D01*
X1736Y1345D01*
X1736Y1347D01*
X1734Y1347D01*
X1734Y1351D01*
X1732Y1351D01*
X1732Y1355D01*
X1730Y1355D01*
X1730Y1369D01*
X1720Y1369D01*
X1720Y1371D01*
X1716Y1371D01*
X1716Y1373D01*
X1714Y1373D01*
X1714Y1375D01*
X1712Y1375D01*
X1712Y1381D01*
X1710Y1381D01*
X1710Y1385D01*
X1712Y1385D01*
X1712Y1391D01*
X1714Y1391D01*
X1714Y1393D01*
X1716Y1393D01*
X1716Y1395D01*
X1718Y1395D01*
X1718Y1397D01*
X1722Y1397D01*
X1722Y1399D01*
X1734Y1399D01*
X1734Y1423D01*
X1732Y1423D01*
X1732Y1449D01*
X1734Y1449D01*
X1734Y1453D01*
X1736Y1453D01*
X1736Y1457D01*
X1738Y1457D01*
X1738Y1459D01*
X1740Y1459D01*
X1740Y1461D01*
X1742Y1461D01*
X1742Y1463D01*
X1744Y1463D01*
X1744Y1465D01*
X1746Y1465D01*
X1746Y1467D01*
X1750Y1467D01*
X1750Y1469D01*
X1756Y1469D01*
X1756Y1471D01*
X1674Y1471D01*
G37*
D02*
G36*
X1770Y1133D02*
X1770Y1131D01*
X1768Y1131D01*
X1768Y1127D01*
X1766Y1127D01*
X1766Y1125D01*
X1764Y1125D01*
X1764Y1123D01*
X1762Y1123D01*
X1762Y1121D01*
X1760Y1121D01*
X1760Y1119D01*
X1758Y1119D01*
X1758Y1117D01*
X1756Y1117D01*
X1756Y1115D01*
X1752Y1115D01*
X1752Y1113D01*
X1794Y1113D01*
X1794Y1131D01*
X1792Y1131D01*
X1792Y1133D01*
X1770Y1133D01*
G37*
D02*
G36*
X1674Y1113D02*
X1674Y1111D01*
X1794Y1111D01*
X1794Y1113D01*
X1674Y1113D01*
G37*
D02*
G36*
X1674Y1113D02*
X1674Y1111D01*
X1794Y1111D01*
X1794Y1113D01*
X1674Y1113D01*
G37*
D02*
G36*
X1674Y1111D02*
X1674Y969D01*
X1742Y969D01*
X1742Y971D01*
X1738Y971D01*
X1738Y973D01*
X1736Y973D01*
X1736Y975D01*
X1734Y975D01*
X1734Y979D01*
X1732Y979D01*
X1732Y989D01*
X1734Y989D01*
X1734Y993D01*
X1736Y993D01*
X1736Y1015D01*
X1734Y1015D01*
X1734Y1019D01*
X1732Y1019D01*
X1732Y1029D01*
X1734Y1029D01*
X1734Y1033D01*
X1736Y1033D01*
X1736Y1035D01*
X1740Y1035D01*
X1740Y1037D01*
X1744Y1037D01*
X1744Y1039D01*
X1750Y1039D01*
X1750Y1059D01*
X1746Y1059D01*
X1746Y1061D01*
X1740Y1061D01*
X1740Y1063D01*
X1738Y1063D01*
X1738Y1065D01*
X1736Y1065D01*
X1736Y1067D01*
X1734Y1067D01*
X1734Y1071D01*
X1732Y1071D01*
X1732Y1081D01*
X1734Y1081D01*
X1734Y1085D01*
X1736Y1085D01*
X1736Y1087D01*
X1738Y1087D01*
X1738Y1089D01*
X1742Y1089D01*
X1742Y1091D01*
X1748Y1091D01*
X1748Y1093D01*
X1752Y1093D01*
X1752Y1095D01*
X1758Y1095D01*
X1758Y1097D01*
X1762Y1097D01*
X1762Y1099D01*
X1768Y1099D01*
X1768Y1101D01*
X1774Y1101D01*
X1774Y1103D01*
X1778Y1103D01*
X1778Y1105D01*
X1784Y1105D01*
X1784Y1107D01*
X1788Y1107D01*
X1788Y1109D01*
X1794Y1109D01*
X1794Y1111D01*
X1674Y1111D01*
G37*
D02*
G36*
X1674Y969D02*
X1674Y967D01*
X1918Y967D01*
X1918Y969D01*
X1674Y969D01*
G37*
D02*
G36*
X1674Y969D02*
X1674Y967D01*
X1918Y967D01*
X1918Y969D01*
X1674Y969D01*
G37*
D02*
G36*
X1674Y967D02*
X1674Y741D01*
X1672Y741D01*
X1672Y735D01*
X1670Y735D01*
X1670Y733D01*
X1668Y733D01*
X1668Y729D01*
X1666Y729D01*
X1666Y727D01*
X1664Y727D01*
X1664Y725D01*
X1662Y725D01*
X1662Y723D01*
X1658Y723D01*
X1658Y721D01*
X1654Y721D01*
X1654Y719D01*
X1648Y719D01*
X1648Y717D01*
X474Y717D01*
X474Y697D01*
X476Y697D01*
X476Y695D01*
X480Y695D01*
X480Y693D01*
X482Y693D01*
X482Y691D01*
X486Y691D01*
X486Y689D01*
X488Y689D01*
X488Y687D01*
X490Y687D01*
X490Y685D01*
X1848Y685D01*
X1848Y683D01*
X1854Y683D01*
X1854Y681D01*
X1858Y681D01*
X1858Y679D01*
X1860Y679D01*
X1860Y677D01*
X1864Y677D01*
X1864Y675D01*
X1866Y675D01*
X1866Y671D01*
X1868Y671D01*
X1868Y669D01*
X1870Y669D01*
X1870Y665D01*
X1872Y665D01*
X1872Y659D01*
X1874Y659D01*
X1874Y41D01*
X1918Y41D01*
X1918Y967D01*
X1674Y967D01*
G37*
D02*
G36*
X492Y685D02*
X492Y683D01*
X494Y683D01*
X494Y679D01*
X496Y679D01*
X496Y677D01*
X498Y677D01*
X498Y675D01*
X500Y675D01*
X500Y671D01*
X502Y671D01*
X502Y667D01*
X504Y667D01*
X504Y663D01*
X506Y663D01*
X506Y657D01*
X508Y657D01*
X508Y627D01*
X506Y627D01*
X506Y621D01*
X504Y621D01*
X504Y617D01*
X502Y617D01*
X502Y613D01*
X500Y613D01*
X500Y609D01*
X498Y609D01*
X498Y607D01*
X496Y607D01*
X496Y605D01*
X494Y605D01*
X494Y601D01*
X492Y601D01*
X492Y599D01*
X546Y599D01*
X546Y597D01*
X552Y597D01*
X552Y595D01*
X558Y595D01*
X558Y593D01*
X562Y593D01*
X562Y591D01*
X564Y591D01*
X564Y589D01*
X568Y589D01*
X568Y587D01*
X570Y587D01*
X570Y585D01*
X852Y585D01*
X852Y583D01*
X856Y583D01*
X856Y581D01*
X860Y581D01*
X860Y579D01*
X862Y579D01*
X862Y577D01*
X864Y577D01*
X864Y575D01*
X866Y575D01*
X866Y573D01*
X868Y573D01*
X868Y571D01*
X870Y571D01*
X870Y567D01*
X872Y567D01*
X872Y563D01*
X874Y563D01*
X874Y555D01*
X876Y555D01*
X876Y431D01*
X964Y431D01*
X964Y429D01*
X972Y429D01*
X972Y427D01*
X976Y427D01*
X976Y425D01*
X980Y425D01*
X980Y423D01*
X984Y423D01*
X984Y421D01*
X988Y421D01*
X988Y419D01*
X990Y419D01*
X990Y417D01*
X992Y417D01*
X992Y415D01*
X994Y415D01*
X994Y413D01*
X998Y413D01*
X998Y411D01*
X1000Y411D01*
X1000Y407D01*
X1002Y407D01*
X1002Y405D01*
X1004Y405D01*
X1004Y403D01*
X1006Y403D01*
X1006Y399D01*
X1008Y399D01*
X1008Y397D01*
X1010Y397D01*
X1010Y393D01*
X1012Y393D01*
X1012Y389D01*
X1014Y389D01*
X1014Y387D01*
X1106Y387D01*
X1106Y451D01*
X1104Y451D01*
X1104Y455D01*
X1102Y455D01*
X1102Y457D01*
X1100Y457D01*
X1100Y463D01*
X1098Y463D01*
X1098Y483D01*
X1100Y483D01*
X1100Y489D01*
X1102Y489D01*
X1102Y493D01*
X1104Y493D01*
X1104Y497D01*
X1106Y497D01*
X1106Y499D01*
X1108Y499D01*
X1108Y501D01*
X1110Y501D01*
X1110Y523D01*
X1108Y523D01*
X1108Y527D01*
X1106Y527D01*
X1106Y529D01*
X1104Y529D01*
X1104Y533D01*
X1102Y533D01*
X1102Y535D01*
X1100Y535D01*
X1100Y541D01*
X1098Y541D01*
X1098Y561D01*
X1100Y561D01*
X1100Y567D01*
X1102Y567D01*
X1102Y571D01*
X1104Y571D01*
X1104Y575D01*
X1106Y575D01*
X1106Y659D01*
X1108Y659D01*
X1108Y665D01*
X1110Y665D01*
X1110Y669D01*
X1112Y669D01*
X1112Y671D01*
X1114Y671D01*
X1114Y673D01*
X1116Y673D01*
X1116Y677D01*
X1120Y677D01*
X1120Y679D01*
X1122Y679D01*
X1122Y681D01*
X1126Y681D01*
X1126Y683D01*
X1132Y683D01*
X1132Y685D01*
X492Y685D01*
G37*
D02*
G36*
X490Y599D02*
X490Y597D01*
X488Y597D01*
X488Y595D01*
X486Y595D01*
X486Y593D01*
X482Y593D01*
X482Y591D01*
X480Y591D01*
X480Y589D01*
X476Y589D01*
X476Y587D01*
X474Y587D01*
X474Y585D01*
X470Y585D01*
X470Y583D01*
X464Y583D01*
X464Y581D01*
X458Y581D01*
X458Y579D01*
X504Y579D01*
X504Y581D01*
X506Y581D01*
X506Y583D01*
X508Y583D01*
X508Y585D01*
X510Y585D01*
X510Y587D01*
X514Y587D01*
X514Y589D01*
X516Y589D01*
X516Y591D01*
X520Y591D01*
X520Y593D01*
X522Y593D01*
X522Y595D01*
X528Y595D01*
X528Y597D01*
X536Y597D01*
X536Y599D01*
X490Y599D01*
G37*
D02*
G36*
X276Y579D02*
X276Y577D01*
X504Y577D01*
X504Y579D01*
X276Y579D01*
G37*
D02*
G36*
X276Y579D02*
X276Y577D01*
X504Y577D01*
X504Y579D01*
X276Y579D01*
G37*
D02*
G36*
X276Y577D02*
X276Y533D01*
X452Y533D01*
X452Y531D01*
X456Y531D01*
X456Y529D01*
X458Y529D01*
X458Y527D01*
X462Y527D01*
X462Y525D01*
X464Y525D01*
X464Y523D01*
X466Y523D01*
X466Y521D01*
X468Y521D01*
X468Y517D01*
X470Y517D01*
X470Y513D01*
X472Y513D01*
X472Y505D01*
X474Y505D01*
X474Y491D01*
X510Y491D01*
X510Y493D01*
X512Y493D01*
X512Y495D01*
X514Y495D01*
X514Y515D01*
X512Y515D01*
X512Y517D01*
X510Y517D01*
X510Y519D01*
X508Y519D01*
X508Y521D01*
X506Y521D01*
X506Y523D01*
X504Y523D01*
X504Y525D01*
X502Y525D01*
X502Y527D01*
X500Y527D01*
X500Y531D01*
X498Y531D01*
X498Y535D01*
X496Y535D01*
X496Y541D01*
X494Y541D01*
X494Y563D01*
X496Y563D01*
X496Y567D01*
X498Y567D01*
X498Y571D01*
X500Y571D01*
X500Y575D01*
X502Y575D01*
X502Y577D01*
X276Y577D01*
G37*
D02*
G36*
X276Y533D02*
X276Y487D01*
X340Y487D01*
X340Y489D01*
X410Y489D01*
X410Y509D01*
X412Y509D01*
X412Y515D01*
X414Y515D01*
X414Y517D01*
X416Y517D01*
X416Y521D01*
X418Y521D01*
X418Y523D01*
X420Y523D01*
X420Y525D01*
X422Y525D01*
X422Y527D01*
X424Y527D01*
X424Y529D01*
X428Y529D01*
X428Y531D01*
X432Y531D01*
X432Y533D01*
X276Y533D01*
G37*
D02*
G36*
X876Y431D02*
X876Y395D01*
X896Y395D01*
X896Y399D01*
X898Y399D01*
X898Y401D01*
X900Y401D01*
X900Y405D01*
X902Y405D01*
X902Y407D01*
X904Y407D01*
X904Y409D01*
X906Y409D01*
X906Y411D01*
X908Y411D01*
X908Y413D01*
X910Y413D01*
X910Y415D01*
X912Y415D01*
X912Y417D01*
X914Y417D01*
X914Y419D01*
X918Y419D01*
X918Y421D01*
X920Y421D01*
X920Y423D01*
X924Y423D01*
X924Y425D01*
X928Y425D01*
X928Y427D01*
X934Y427D01*
X934Y429D01*
X940Y429D01*
X940Y431D01*
X876Y431D01*
G37*
D02*
G36*
X472Y1619D02*
X472Y1599D01*
X476Y1599D01*
X476Y1597D01*
X478Y1597D01*
X478Y1595D01*
X482Y1595D01*
X482Y1593D01*
X484Y1593D01*
X484Y1591D01*
X486Y1591D01*
X486Y1589D01*
X488Y1589D01*
X488Y1587D01*
X490Y1587D01*
X490Y1585D01*
X492Y1585D01*
X492Y1583D01*
X494Y1583D01*
X494Y1581D01*
X496Y1581D01*
X496Y1579D01*
X498Y1579D01*
X498Y1575D01*
X500Y1575D01*
X500Y1573D01*
X502Y1573D01*
X502Y1569D01*
X504Y1569D01*
X504Y1563D01*
X506Y1563D01*
X506Y1557D01*
X508Y1557D01*
X508Y1545D01*
X510Y1545D01*
X510Y1541D01*
X508Y1541D01*
X508Y1529D01*
X506Y1529D01*
X506Y1523D01*
X504Y1523D01*
X504Y1517D01*
X502Y1517D01*
X502Y1513D01*
X500Y1513D01*
X500Y1511D01*
X498Y1511D01*
X498Y1507D01*
X496Y1507D01*
X496Y1499D01*
X550Y1499D01*
X550Y1497D01*
X556Y1497D01*
X556Y1495D01*
X560Y1495D01*
X560Y1493D01*
X564Y1493D01*
X564Y1491D01*
X566Y1491D01*
X566Y1489D01*
X568Y1489D01*
X568Y1487D01*
X572Y1487D01*
X572Y1485D01*
X574Y1485D01*
X574Y1481D01*
X576Y1481D01*
X576Y1479D01*
X578Y1479D01*
X578Y1477D01*
X580Y1477D01*
X580Y1473D01*
X582Y1473D01*
X582Y1471D01*
X584Y1471D01*
X584Y1465D01*
X586Y1465D01*
X586Y1457D01*
X588Y1457D01*
X588Y1449D01*
X586Y1449D01*
X586Y1441D01*
X584Y1441D01*
X584Y1435D01*
X582Y1435D01*
X582Y1431D01*
X580Y1431D01*
X580Y1429D01*
X578Y1429D01*
X578Y1425D01*
X576Y1425D01*
X576Y1423D01*
X574Y1423D01*
X574Y1421D01*
X572Y1421D01*
X572Y1419D01*
X570Y1419D01*
X570Y1417D01*
X568Y1417D01*
X568Y1395D01*
X570Y1395D01*
X570Y1393D01*
X572Y1393D01*
X572Y1391D01*
X622Y1391D01*
X622Y1389D01*
X674Y1389D01*
X674Y1387D01*
X706Y1387D01*
X706Y1619D01*
X472Y1619D01*
G37*
D02*
G36*
X496Y1499D02*
X496Y1491D01*
X518Y1491D01*
X518Y1493D01*
X520Y1493D01*
X520Y1495D01*
X524Y1495D01*
X524Y1497D01*
X530Y1497D01*
X530Y1499D01*
X496Y1499D01*
G37*
D02*
G36*
X1466Y1513D02*
X1466Y1511D01*
X1440Y1511D01*
X1440Y1509D01*
X1412Y1509D01*
X1412Y1507D01*
X1386Y1507D01*
X1386Y1505D01*
X1358Y1505D01*
X1358Y1503D01*
X1346Y1503D01*
X1346Y1483D01*
X1352Y1483D01*
X1352Y1481D01*
X1356Y1481D01*
X1356Y1479D01*
X1360Y1479D01*
X1360Y1477D01*
X1362Y1477D01*
X1362Y1475D01*
X1364Y1475D01*
X1364Y1473D01*
X1366Y1473D01*
X1366Y1471D01*
X1368Y1471D01*
X1368Y1467D01*
X1370Y1467D01*
X1370Y1463D01*
X1372Y1463D01*
X1372Y1455D01*
X1374Y1455D01*
X1374Y993D01*
X1480Y993D01*
X1480Y985D01*
X1506Y985D01*
X1506Y1513D01*
X1466Y1513D01*
G37*
D02*
G36*
X1374Y993D02*
X1374Y971D01*
X1376Y971D01*
X1376Y969D01*
X1378Y969D01*
X1378Y963D01*
X1398Y963D01*
X1398Y993D01*
X1374Y993D01*
G37*
D02*
G36*
X1076Y1469D02*
X1076Y1467D01*
X1072Y1467D01*
X1072Y1465D01*
X1066Y1465D01*
X1066Y1463D01*
X1062Y1463D01*
X1062Y1461D01*
X1056Y1461D01*
X1056Y1459D01*
X1050Y1459D01*
X1050Y1457D01*
X1046Y1457D01*
X1046Y1455D01*
X1040Y1455D01*
X1040Y1453D01*
X1036Y1453D01*
X1036Y1451D01*
X1030Y1451D01*
X1030Y1449D01*
X1024Y1449D01*
X1024Y1447D01*
X1020Y1447D01*
X1020Y1445D01*
X1014Y1445D01*
X1014Y1443D01*
X1008Y1443D01*
X1008Y1441D01*
X1004Y1441D01*
X1004Y1439D01*
X998Y1439D01*
X998Y1437D01*
X994Y1437D01*
X994Y1435D01*
X988Y1435D01*
X988Y1433D01*
X982Y1433D01*
X982Y1431D01*
X978Y1431D01*
X978Y1429D01*
X974Y1429D01*
X974Y1041D01*
X972Y1041D01*
X972Y1037D01*
X970Y1037D01*
X970Y1033D01*
X968Y1033D01*
X968Y1031D01*
X966Y1031D01*
X966Y1029D01*
X964Y1029D01*
X964Y1027D01*
X962Y1027D01*
X962Y1025D01*
X960Y1025D01*
X960Y1023D01*
X956Y1023D01*
X956Y1021D01*
X952Y1021D01*
X952Y1019D01*
X906Y1019D01*
X906Y1017D01*
X772Y1017D01*
X772Y1015D01*
X770Y1015D01*
X770Y1013D01*
X766Y1013D01*
X766Y991D01*
X768Y991D01*
X768Y989D01*
X770Y989D01*
X770Y987D01*
X772Y987D01*
X772Y985D01*
X956Y985D01*
X956Y987D01*
X1106Y987D01*
X1106Y1221D01*
X1108Y1221D01*
X1108Y1429D01*
X1106Y1429D01*
X1106Y1431D01*
X1104Y1431D01*
X1104Y1435D01*
X1102Y1435D01*
X1102Y1439D01*
X1100Y1439D01*
X1100Y1447D01*
X1098Y1447D01*
X1098Y1455D01*
X1100Y1455D01*
X1100Y1469D01*
X1076Y1469D01*
G37*
D02*
G36*
X1180Y1435D02*
X1180Y1433D01*
X1178Y1433D01*
X1178Y1429D01*
X1176Y1429D01*
X1176Y1217D01*
X1174Y1217D01*
X1174Y945D01*
X1172Y945D01*
X1172Y939D01*
X1170Y939D01*
X1170Y935D01*
X1168Y935D01*
X1168Y931D01*
X1166Y931D01*
X1166Y929D01*
X1164Y929D01*
X1164Y927D01*
X1162Y927D01*
X1162Y925D01*
X1158Y925D01*
X1158Y923D01*
X1154Y923D01*
X1154Y921D01*
X1150Y921D01*
X1150Y919D01*
X962Y919D01*
X962Y917D01*
X772Y917D01*
X772Y915D01*
X770Y915D01*
X770Y913D01*
X766Y913D01*
X766Y911D01*
X764Y911D01*
X764Y909D01*
X760Y909D01*
X760Y907D01*
X756Y907D01*
X756Y905D01*
X750Y905D01*
X750Y885D01*
X1206Y885D01*
X1206Y1429D01*
X1204Y1429D01*
X1204Y1433D01*
X1202Y1433D01*
X1202Y1435D01*
X1180Y1435D01*
G37*
D02*
G36*
X374Y1419D02*
X374Y1371D01*
X440Y1371D01*
X440Y1373D01*
X432Y1373D01*
X432Y1375D01*
X428Y1375D01*
X428Y1377D01*
X424Y1377D01*
X424Y1379D01*
X422Y1379D01*
X422Y1381D01*
X420Y1381D01*
X420Y1383D01*
X418Y1383D01*
X418Y1385D01*
X416Y1385D01*
X416Y1387D01*
X414Y1387D01*
X414Y1391D01*
X412Y1391D01*
X412Y1397D01*
X410Y1397D01*
X410Y1419D01*
X374Y1419D01*
G37*
D02*
G36*
X474Y1419D02*
X474Y1399D01*
X472Y1399D01*
X472Y1393D01*
X470Y1393D01*
X470Y1389D01*
X468Y1389D01*
X468Y1385D01*
X466Y1385D01*
X466Y1383D01*
X464Y1383D01*
X464Y1381D01*
X462Y1381D01*
X462Y1379D01*
X460Y1379D01*
X460Y1377D01*
X456Y1377D01*
X456Y1375D01*
X452Y1375D01*
X452Y1373D01*
X444Y1373D01*
X444Y1371D01*
X496Y1371D01*
X496Y1375D01*
X498Y1375D01*
X498Y1379D01*
X500Y1379D01*
X500Y1383D01*
X502Y1383D01*
X502Y1385D01*
X504Y1385D01*
X504Y1387D01*
X506Y1387D01*
X506Y1391D01*
X508Y1391D01*
X508Y1393D01*
X512Y1393D01*
X512Y1395D01*
X514Y1395D01*
X514Y1417D01*
X510Y1417D01*
X510Y1419D01*
X474Y1419D01*
G37*
D02*
G36*
X374Y1371D02*
X374Y1369D01*
X496Y1369D01*
X496Y1371D01*
X374Y1371D01*
G37*
D02*
G36*
X374Y1371D02*
X374Y1369D01*
X496Y1369D01*
X496Y1371D01*
X374Y1371D01*
G37*
D02*
G36*
X374Y1369D02*
X374Y1257D01*
X452Y1257D01*
X452Y1255D01*
X456Y1255D01*
X456Y1253D01*
X458Y1253D01*
X458Y1251D01*
X462Y1251D01*
X462Y1249D01*
X464Y1249D01*
X464Y1247D01*
X466Y1247D01*
X466Y1245D01*
X468Y1245D01*
X468Y1241D01*
X470Y1241D01*
X470Y1237D01*
X472Y1237D01*
X472Y1231D01*
X474Y1231D01*
X474Y1221D01*
X472Y1221D01*
X472Y1215D01*
X470Y1215D01*
X470Y1211D01*
X468Y1211D01*
X468Y1209D01*
X466Y1209D01*
X466Y1205D01*
X464Y1205D01*
X464Y1203D01*
X462Y1203D01*
X462Y1201D01*
X458Y1201D01*
X458Y1199D01*
X456Y1199D01*
X456Y1197D01*
X450Y1197D01*
X450Y1195D01*
X498Y1195D01*
X498Y1197D01*
X500Y1197D01*
X500Y1201D01*
X502Y1201D01*
X502Y1203D01*
X504Y1203D01*
X504Y1205D01*
X506Y1205D01*
X506Y1207D01*
X508Y1207D01*
X508Y1209D01*
X510Y1209D01*
X510Y1211D01*
X512Y1211D01*
X512Y1213D01*
X514Y1213D01*
X514Y1233D01*
X512Y1233D01*
X512Y1235D01*
X510Y1235D01*
X510Y1237D01*
X508Y1237D01*
X508Y1239D01*
X506Y1239D01*
X506Y1241D01*
X504Y1241D01*
X504Y1245D01*
X502Y1245D01*
X502Y1247D01*
X500Y1247D01*
X500Y1251D01*
X498Y1251D01*
X498Y1255D01*
X496Y1255D01*
X496Y1259D01*
X494Y1259D01*
X494Y1281D01*
X496Y1281D01*
X496Y1287D01*
X498Y1287D01*
X498Y1291D01*
X500Y1291D01*
X500Y1293D01*
X502Y1293D01*
X502Y1297D01*
X504Y1297D01*
X504Y1299D01*
X506Y1299D01*
X506Y1301D01*
X508Y1301D01*
X508Y1303D01*
X510Y1303D01*
X510Y1305D01*
X512Y1305D01*
X512Y1325D01*
X510Y1325D01*
X510Y1327D01*
X508Y1327D01*
X508Y1329D01*
X506Y1329D01*
X506Y1331D01*
X504Y1331D01*
X504Y1333D01*
X502Y1333D01*
X502Y1335D01*
X500Y1335D01*
X500Y1339D01*
X498Y1339D01*
X498Y1343D01*
X496Y1343D01*
X496Y1349D01*
X494Y1349D01*
X494Y1369D01*
X374Y1369D01*
G37*
D02*
G36*
X374Y1257D02*
X374Y1195D01*
X434Y1195D01*
X434Y1197D01*
X428Y1197D01*
X428Y1199D01*
X426Y1199D01*
X426Y1201D01*
X422Y1201D01*
X422Y1203D01*
X420Y1203D01*
X420Y1205D01*
X418Y1205D01*
X418Y1207D01*
X416Y1207D01*
X416Y1211D01*
X414Y1211D01*
X414Y1215D01*
X412Y1215D01*
X412Y1221D01*
X410Y1221D01*
X410Y1233D01*
X412Y1233D01*
X412Y1237D01*
X414Y1237D01*
X414Y1241D01*
X416Y1241D01*
X416Y1245D01*
X418Y1245D01*
X418Y1247D01*
X420Y1247D01*
X420Y1249D01*
X422Y1249D01*
X422Y1251D01*
X424Y1251D01*
X424Y1253D01*
X428Y1253D01*
X428Y1255D01*
X432Y1255D01*
X432Y1257D01*
X374Y1257D01*
G37*
D02*
G36*
X374Y1195D02*
X374Y1193D01*
X498Y1193D01*
X498Y1195D01*
X374Y1195D01*
G37*
D02*
G36*
X374Y1195D02*
X374Y1193D01*
X498Y1193D01*
X498Y1195D01*
X374Y1195D01*
G37*
D02*
G36*
X374Y1193D02*
X374Y1149D01*
X460Y1149D01*
X460Y1147D01*
X466Y1147D01*
X466Y1145D01*
X470Y1145D01*
X470Y1143D01*
X474Y1143D01*
X474Y1141D01*
X478Y1141D01*
X478Y1139D01*
X480Y1139D01*
X480Y1137D01*
X484Y1137D01*
X484Y1135D01*
X486Y1135D01*
X486Y1133D01*
X506Y1133D01*
X506Y1149D01*
X504Y1149D01*
X504Y1151D01*
X502Y1151D01*
X502Y1153D01*
X500Y1153D01*
X500Y1157D01*
X498Y1157D01*
X498Y1161D01*
X496Y1161D01*
X496Y1167D01*
X494Y1167D01*
X494Y1187D01*
X496Y1187D01*
X496Y1193D01*
X374Y1193D01*
G37*
D02*
G36*
X374Y1149D02*
X374Y1119D01*
X394Y1119D01*
X394Y1123D01*
X396Y1123D01*
X396Y1125D01*
X398Y1125D01*
X398Y1127D01*
X400Y1127D01*
X400Y1129D01*
X402Y1129D01*
X402Y1131D01*
X404Y1131D01*
X404Y1133D01*
X406Y1133D01*
X406Y1135D01*
X408Y1135D01*
X408Y1137D01*
X410Y1137D01*
X410Y1139D01*
X414Y1139D01*
X414Y1141D01*
X418Y1141D01*
X418Y1143D01*
X422Y1143D01*
X422Y1145D01*
X426Y1145D01*
X426Y1147D01*
X432Y1147D01*
X432Y1149D01*
X374Y1149D01*
G37*
D02*
G36*
X788Y1349D02*
X788Y1339D01*
X786Y1339D01*
X786Y1333D01*
X784Y1333D01*
X784Y1331D01*
X782Y1331D01*
X782Y1327D01*
X780Y1327D01*
X780Y1323D01*
X778Y1323D01*
X778Y1321D01*
X776Y1321D01*
X776Y1319D01*
X774Y1319D01*
X774Y1317D01*
X772Y1317D01*
X772Y1315D01*
X770Y1315D01*
X770Y1313D01*
X766Y1313D01*
X766Y1291D01*
X768Y1291D01*
X768Y1289D01*
X770Y1289D01*
X770Y1287D01*
X772Y1287D01*
X772Y1285D01*
X808Y1285D01*
X808Y1349D01*
X788Y1349D01*
G37*
D02*
G36*
X570Y1323D02*
X570Y1303D01*
X574Y1303D01*
X574Y1301D01*
X588Y1301D01*
X588Y1299D01*
X610Y1299D01*
X610Y1297D01*
X630Y1297D01*
X630Y1295D01*
X652Y1295D01*
X652Y1293D01*
X672Y1293D01*
X672Y1291D01*
X716Y1291D01*
X716Y1311D01*
X714Y1311D01*
X714Y1313D01*
X712Y1313D01*
X712Y1315D01*
X708Y1315D01*
X708Y1317D01*
X706Y1317D01*
X706Y1319D01*
X672Y1319D01*
X672Y1321D01*
X620Y1321D01*
X620Y1323D01*
X570Y1323D01*
G37*
D02*
G36*
X874Y1777D02*
X874Y1755D01*
X876Y1755D01*
X876Y1701D01*
X966Y1701D01*
X966Y1699D01*
X974Y1699D01*
X974Y1697D01*
X978Y1697D01*
X978Y1695D01*
X982Y1695D01*
X982Y1693D01*
X986Y1693D01*
X986Y1691D01*
X988Y1691D01*
X988Y1689D01*
X992Y1689D01*
X992Y1687D01*
X994Y1687D01*
X994Y1685D01*
X996Y1685D01*
X996Y1683D01*
X998Y1683D01*
X998Y1681D01*
X1000Y1681D01*
X1000Y1679D01*
X1002Y1679D01*
X1002Y1677D01*
X1004Y1677D01*
X1004Y1675D01*
X1006Y1675D01*
X1006Y1673D01*
X1008Y1673D01*
X1008Y1669D01*
X1010Y1669D01*
X1010Y1665D01*
X1012Y1665D01*
X1012Y1661D01*
X1014Y1661D01*
X1014Y1657D01*
X1016Y1657D01*
X1016Y1651D01*
X1018Y1651D01*
X1018Y1623D01*
X1016Y1623D01*
X1016Y1615D01*
X1014Y1615D01*
X1014Y1611D01*
X1012Y1611D01*
X1012Y1607D01*
X1010Y1607D01*
X1010Y1603D01*
X1008Y1603D01*
X1008Y1601D01*
X1006Y1601D01*
X1006Y1597D01*
X1004Y1597D01*
X1004Y1595D01*
X1002Y1595D01*
X1002Y1593D01*
X1000Y1593D01*
X1000Y1591D01*
X998Y1591D01*
X998Y1589D01*
X996Y1589D01*
X996Y1587D01*
X994Y1587D01*
X994Y1585D01*
X990Y1585D01*
X990Y1583D01*
X988Y1583D01*
X988Y1581D01*
X984Y1581D01*
X984Y1579D01*
X980Y1579D01*
X980Y1577D01*
X976Y1577D01*
X976Y1575D01*
X970Y1575D01*
X970Y1573D01*
X1146Y1573D01*
X1146Y1571D01*
X1154Y1571D01*
X1154Y1569D01*
X1158Y1569D01*
X1158Y1567D01*
X1162Y1567D01*
X1162Y1565D01*
X1166Y1565D01*
X1166Y1563D01*
X1168Y1563D01*
X1168Y1561D01*
X1170Y1561D01*
X1170Y1559D01*
X1172Y1559D01*
X1172Y1557D01*
X1174Y1557D01*
X1174Y1555D01*
X1176Y1555D01*
X1176Y1551D01*
X1178Y1551D01*
X1178Y1549D01*
X1180Y1549D01*
X1180Y1545D01*
X1202Y1545D01*
X1202Y1549D01*
X1204Y1549D01*
X1204Y1553D01*
X1206Y1553D01*
X1206Y1777D01*
X874Y1777D01*
G37*
D02*
G36*
X876Y1701D02*
X876Y1663D01*
X896Y1663D01*
X896Y1667D01*
X898Y1667D01*
X898Y1669D01*
X900Y1669D01*
X900Y1673D01*
X902Y1673D01*
X902Y1675D01*
X904Y1675D01*
X904Y1677D01*
X906Y1677D01*
X906Y1679D01*
X908Y1679D01*
X908Y1681D01*
X910Y1681D01*
X910Y1683D01*
X912Y1683D01*
X912Y1685D01*
X914Y1685D01*
X914Y1687D01*
X916Y1687D01*
X916Y1689D01*
X918Y1689D01*
X918Y1691D01*
X922Y1691D01*
X922Y1693D01*
X926Y1693D01*
X926Y1695D01*
X930Y1695D01*
X930Y1697D01*
X934Y1697D01*
X934Y1699D01*
X942Y1699D01*
X942Y1701D01*
X876Y1701D01*
G37*
D02*
G36*
X876Y1611D02*
X876Y1571D01*
X946Y1571D01*
X946Y1573D01*
X938Y1573D01*
X938Y1575D01*
X932Y1575D01*
X932Y1577D01*
X928Y1577D01*
X928Y1579D01*
X924Y1579D01*
X924Y1581D01*
X920Y1581D01*
X920Y1583D01*
X918Y1583D01*
X918Y1585D01*
X914Y1585D01*
X914Y1587D01*
X912Y1587D01*
X912Y1589D01*
X910Y1589D01*
X910Y1591D01*
X908Y1591D01*
X908Y1593D01*
X906Y1593D01*
X906Y1595D01*
X904Y1595D01*
X904Y1597D01*
X902Y1597D01*
X902Y1601D01*
X900Y1601D01*
X900Y1603D01*
X898Y1603D01*
X898Y1607D01*
X896Y1607D01*
X896Y1611D01*
X876Y1611D01*
G37*
D02*
G36*
X962Y1573D02*
X962Y1571D01*
X1136Y1571D01*
X1136Y1573D01*
X962Y1573D01*
G37*
D02*
G36*
X876Y1571D02*
X876Y1569D01*
X1130Y1569D01*
X1130Y1571D01*
X876Y1571D01*
G37*
D02*
G36*
X876Y1571D02*
X876Y1569D01*
X1130Y1569D01*
X1130Y1571D01*
X876Y1571D01*
G37*
D02*
G36*
X876Y1569D02*
X876Y1249D01*
X874Y1249D01*
X874Y1239D01*
X872Y1239D01*
X872Y1235D01*
X870Y1235D01*
X870Y1231D01*
X868Y1231D01*
X868Y1229D01*
X866Y1229D01*
X866Y1227D01*
X864Y1227D01*
X864Y1225D01*
X862Y1225D01*
X862Y1223D01*
X858Y1223D01*
X858Y1221D01*
X854Y1221D01*
X854Y1219D01*
X848Y1219D01*
X848Y1217D01*
X772Y1217D01*
X772Y1215D01*
X770Y1215D01*
X770Y1213D01*
X766Y1213D01*
X766Y1211D01*
X764Y1211D01*
X764Y1209D01*
X760Y1209D01*
X760Y1207D01*
X756Y1207D01*
X756Y1205D01*
X750Y1205D01*
X750Y1203D01*
X906Y1203D01*
X906Y1461D01*
X908Y1461D01*
X908Y1467D01*
X910Y1467D01*
X910Y1471D01*
X912Y1471D01*
X912Y1473D01*
X914Y1473D01*
X914Y1475D01*
X916Y1475D01*
X916Y1477D01*
X918Y1477D01*
X918Y1479D01*
X920Y1479D01*
X920Y1481D01*
X924Y1481D01*
X924Y1483D01*
X928Y1483D01*
X928Y1485D01*
X934Y1485D01*
X934Y1487D01*
X940Y1487D01*
X940Y1489D01*
X944Y1489D01*
X944Y1491D01*
X950Y1491D01*
X950Y1493D01*
X954Y1493D01*
X954Y1495D01*
X960Y1495D01*
X960Y1497D01*
X966Y1497D01*
X966Y1499D01*
X970Y1499D01*
X970Y1501D01*
X976Y1501D01*
X976Y1503D01*
X980Y1503D01*
X980Y1505D01*
X986Y1505D01*
X986Y1507D01*
X992Y1507D01*
X992Y1509D01*
X996Y1509D01*
X996Y1511D01*
X1002Y1511D01*
X1002Y1513D01*
X1006Y1513D01*
X1006Y1515D01*
X1012Y1515D01*
X1012Y1517D01*
X1018Y1517D01*
X1018Y1519D01*
X1022Y1519D01*
X1022Y1521D01*
X1028Y1521D01*
X1028Y1523D01*
X1032Y1523D01*
X1032Y1525D01*
X1038Y1525D01*
X1038Y1527D01*
X1044Y1527D01*
X1044Y1529D01*
X1048Y1529D01*
X1048Y1531D01*
X1054Y1531D01*
X1054Y1533D01*
X1058Y1533D01*
X1058Y1535D01*
X1064Y1535D01*
X1064Y1537D01*
X1070Y1537D01*
X1070Y1539D01*
X1074Y1539D01*
X1074Y1541D01*
X1080Y1541D01*
X1080Y1543D01*
X1084Y1543D01*
X1084Y1545D01*
X1090Y1545D01*
X1090Y1547D01*
X1096Y1547D01*
X1096Y1549D01*
X1106Y1549D01*
X1106Y1553D01*
X1108Y1553D01*
X1108Y1555D01*
X1110Y1555D01*
X1110Y1557D01*
X1112Y1557D01*
X1112Y1559D01*
X1114Y1559D01*
X1114Y1561D01*
X1116Y1561D01*
X1116Y1563D01*
X1118Y1563D01*
X1118Y1565D01*
X1122Y1565D01*
X1122Y1567D01*
X1124Y1567D01*
X1124Y1569D01*
X876Y1569D01*
G37*
D02*
G36*
X566Y1231D02*
X566Y1213D01*
X570Y1213D01*
X570Y1211D01*
X572Y1211D01*
X572Y1209D01*
X574Y1209D01*
X574Y1207D01*
X576Y1207D01*
X576Y1203D01*
X730Y1203D01*
X730Y1205D01*
X724Y1205D01*
X724Y1207D01*
X720Y1207D01*
X720Y1209D01*
X716Y1209D01*
X716Y1211D01*
X714Y1211D01*
X714Y1213D01*
X712Y1213D01*
X712Y1215D01*
X708Y1215D01*
X708Y1217D01*
X706Y1217D01*
X706Y1219D01*
X704Y1219D01*
X704Y1221D01*
X690Y1221D01*
X690Y1223D01*
X670Y1223D01*
X670Y1225D01*
X648Y1225D01*
X648Y1227D01*
X626Y1227D01*
X626Y1229D01*
X606Y1229D01*
X606Y1231D01*
X566Y1231D01*
G37*
D02*
G36*
X578Y1203D02*
X578Y1201D01*
X906Y1201D01*
X906Y1203D01*
X578Y1203D01*
G37*
D02*
G36*
X578Y1203D02*
X578Y1201D01*
X906Y1201D01*
X906Y1203D01*
X578Y1203D01*
G37*
D02*
G36*
X580Y1201D02*
X580Y1197D01*
X582Y1197D01*
X582Y1195D01*
X584Y1195D01*
X584Y1189D01*
X586Y1189D01*
X586Y1181D01*
X588Y1181D01*
X588Y1173D01*
X586Y1173D01*
X586Y1165D01*
X584Y1165D01*
X584Y1159D01*
X582Y1159D01*
X582Y1157D01*
X580Y1157D01*
X580Y1153D01*
X578Y1153D01*
X578Y1151D01*
X576Y1151D01*
X576Y1147D01*
X574Y1147D01*
X574Y1101D01*
X746Y1101D01*
X746Y1099D01*
X752Y1099D01*
X752Y1097D01*
X758Y1097D01*
X758Y1095D01*
X762Y1095D01*
X762Y1093D01*
X766Y1093D01*
X766Y1091D01*
X768Y1091D01*
X768Y1089D01*
X770Y1089D01*
X770Y1087D01*
X772Y1087D01*
X772Y1085D01*
X902Y1085D01*
X902Y1087D01*
X906Y1087D01*
X906Y1201D01*
X580Y1201D01*
G37*
D02*
G36*
X574Y1101D02*
X574Y885D01*
X730Y885D01*
X730Y905D01*
X724Y905D01*
X724Y907D01*
X720Y907D01*
X720Y909D01*
X716Y909D01*
X716Y911D01*
X714Y911D01*
X714Y913D01*
X712Y913D01*
X712Y915D01*
X708Y915D01*
X708Y917D01*
X706Y917D01*
X706Y919D01*
X704Y919D01*
X704Y921D01*
X702Y921D01*
X702Y925D01*
X700Y925D01*
X700Y927D01*
X698Y927D01*
X698Y931D01*
X696Y931D01*
X696Y935D01*
X694Y935D01*
X694Y941D01*
X692Y941D01*
X692Y963D01*
X694Y963D01*
X694Y969D01*
X696Y969D01*
X696Y973D01*
X698Y973D01*
X698Y975D01*
X700Y975D01*
X700Y979D01*
X702Y979D01*
X702Y981D01*
X704Y981D01*
X704Y983D01*
X706Y983D01*
X706Y985D01*
X708Y985D01*
X708Y987D01*
X710Y987D01*
X710Y989D01*
X712Y989D01*
X712Y991D01*
X716Y991D01*
X716Y1011D01*
X714Y1011D01*
X714Y1013D01*
X712Y1013D01*
X712Y1015D01*
X708Y1015D01*
X708Y1017D01*
X706Y1017D01*
X706Y1019D01*
X704Y1019D01*
X704Y1021D01*
X702Y1021D01*
X702Y1025D01*
X700Y1025D01*
X700Y1027D01*
X698Y1027D01*
X698Y1031D01*
X696Y1031D01*
X696Y1035D01*
X694Y1035D01*
X694Y1041D01*
X692Y1041D01*
X692Y1063D01*
X694Y1063D01*
X694Y1069D01*
X696Y1069D01*
X696Y1073D01*
X698Y1073D01*
X698Y1075D01*
X700Y1075D01*
X700Y1079D01*
X702Y1079D01*
X702Y1081D01*
X704Y1081D01*
X704Y1083D01*
X706Y1083D01*
X706Y1085D01*
X708Y1085D01*
X708Y1087D01*
X710Y1087D01*
X710Y1089D01*
X712Y1089D01*
X712Y1091D01*
X716Y1091D01*
X716Y1093D01*
X718Y1093D01*
X718Y1095D01*
X722Y1095D01*
X722Y1097D01*
X728Y1097D01*
X728Y1099D01*
X734Y1099D01*
X734Y1101D01*
X574Y1101D01*
G37*
D02*
G36*
X1448Y1717D02*
X1448Y1697D01*
X1452Y1697D01*
X1452Y1695D01*
X1456Y1695D01*
X1456Y1693D01*
X1460Y1693D01*
X1460Y1691D01*
X1462Y1691D01*
X1462Y1689D01*
X1466Y1689D01*
X1466Y1687D01*
X1468Y1687D01*
X1468Y1685D01*
X1470Y1685D01*
X1470Y1683D01*
X1472Y1683D01*
X1472Y1681D01*
X1474Y1681D01*
X1474Y1679D01*
X1476Y1679D01*
X1476Y1677D01*
X1478Y1677D01*
X1478Y1675D01*
X1480Y1675D01*
X1480Y1673D01*
X1482Y1673D01*
X1482Y1669D01*
X1484Y1669D01*
X1484Y1665D01*
X1486Y1665D01*
X1486Y1661D01*
X1488Y1661D01*
X1488Y1657D01*
X1490Y1657D01*
X1490Y1651D01*
X1492Y1651D01*
X1492Y1623D01*
X1490Y1623D01*
X1490Y1615D01*
X1488Y1615D01*
X1488Y1611D01*
X1486Y1611D01*
X1486Y1607D01*
X1484Y1607D01*
X1484Y1603D01*
X1482Y1603D01*
X1482Y1601D01*
X1480Y1601D01*
X1480Y1585D01*
X1550Y1585D01*
X1550Y1583D01*
X1556Y1583D01*
X1556Y1581D01*
X1560Y1581D01*
X1560Y1579D01*
X1562Y1579D01*
X1562Y1577D01*
X1564Y1577D01*
X1564Y1575D01*
X1566Y1575D01*
X1566Y1573D01*
X1568Y1573D01*
X1568Y1571D01*
X1570Y1571D01*
X1570Y1567D01*
X1572Y1567D01*
X1572Y1563D01*
X1574Y1563D01*
X1574Y941D01*
X1572Y941D01*
X1572Y937D01*
X1570Y937D01*
X1570Y933D01*
X1568Y933D01*
X1568Y931D01*
X1566Y931D01*
X1566Y929D01*
X1564Y929D01*
X1564Y927D01*
X1562Y927D01*
X1562Y925D01*
X1560Y925D01*
X1560Y923D01*
X1556Y923D01*
X1556Y921D01*
X1550Y921D01*
X1550Y919D01*
X1510Y919D01*
X1510Y917D01*
X1480Y917D01*
X1480Y909D01*
X1606Y909D01*
X1606Y1717D01*
X1448Y1717D01*
G37*
D02*
G36*
X1480Y1585D02*
X1480Y1583D01*
X1518Y1583D01*
X1518Y1585D01*
X1480Y1585D01*
G37*
D02*
G36*
X1274Y1417D02*
X1274Y909D01*
X1338Y909D01*
X1338Y911D01*
X1330Y911D01*
X1330Y913D01*
X1324Y913D01*
X1324Y915D01*
X1320Y915D01*
X1320Y917D01*
X1318Y917D01*
X1318Y919D01*
X1316Y919D01*
X1316Y921D01*
X1312Y921D01*
X1312Y923D01*
X1310Y923D01*
X1310Y927D01*
X1308Y927D01*
X1308Y929D01*
X1306Y929D01*
X1306Y931D01*
X1304Y931D01*
X1304Y935D01*
X1302Y935D01*
X1302Y939D01*
X1300Y939D01*
X1300Y947D01*
X1298Y947D01*
X1298Y955D01*
X1300Y955D01*
X1300Y963D01*
X1302Y963D01*
X1302Y967D01*
X1304Y967D01*
X1304Y971D01*
X1306Y971D01*
X1306Y1417D01*
X1274Y1417D01*
G37*
D02*
G36*
X374Y1053D02*
X374Y1023D01*
X436Y1023D01*
X436Y1025D01*
X428Y1025D01*
X428Y1027D01*
X422Y1027D01*
X422Y1029D01*
X418Y1029D01*
X418Y1031D01*
X416Y1031D01*
X416Y1033D01*
X412Y1033D01*
X412Y1035D01*
X410Y1035D01*
X410Y1037D01*
X406Y1037D01*
X406Y1039D01*
X404Y1039D01*
X404Y1041D01*
X402Y1041D01*
X402Y1043D01*
X400Y1043D01*
X400Y1045D01*
X398Y1045D01*
X398Y1047D01*
X396Y1047D01*
X396Y1051D01*
X394Y1051D01*
X394Y1053D01*
X374Y1053D01*
G37*
D02*
G36*
X484Y1039D02*
X484Y1037D01*
X482Y1037D01*
X482Y1035D01*
X480Y1035D01*
X480Y1033D01*
X476Y1033D01*
X476Y1031D01*
X472Y1031D01*
X472Y1029D01*
X468Y1029D01*
X468Y1027D01*
X464Y1027D01*
X464Y1025D01*
X456Y1025D01*
X456Y1023D01*
X506Y1023D01*
X506Y1039D01*
X484Y1039D01*
G37*
D02*
G36*
X374Y1023D02*
X374Y1021D01*
X506Y1021D01*
X506Y1023D01*
X374Y1023D01*
G37*
D02*
G36*
X374Y1023D02*
X374Y1021D01*
X506Y1021D01*
X506Y1023D01*
X374Y1023D01*
G37*
D02*
G36*
X374Y1021D02*
X374Y817D01*
X530Y817D01*
X530Y819D01*
X526Y819D01*
X526Y821D01*
X522Y821D01*
X522Y823D01*
X520Y823D01*
X520Y825D01*
X516Y825D01*
X516Y827D01*
X514Y827D01*
X514Y831D01*
X512Y831D01*
X512Y833D01*
X510Y833D01*
X510Y837D01*
X508Y837D01*
X508Y843D01*
X506Y843D01*
X506Y1021D01*
X374Y1021D01*
G37*
D02*
G36*
X1378Y939D02*
X1378Y935D01*
X1376Y935D01*
X1376Y931D01*
X1374Y931D01*
X1374Y929D01*
X1372Y929D01*
X1372Y925D01*
X1370Y925D01*
X1370Y923D01*
X1368Y923D01*
X1368Y921D01*
X1366Y921D01*
X1366Y919D01*
X1362Y919D01*
X1362Y917D01*
X1360Y917D01*
X1360Y915D01*
X1356Y915D01*
X1356Y913D01*
X1352Y913D01*
X1352Y911D01*
X1342Y911D01*
X1342Y909D01*
X1398Y909D01*
X1398Y939D01*
X1378Y939D01*
G37*
D02*
G36*
X1274Y909D02*
X1274Y907D01*
X1606Y907D01*
X1606Y909D01*
X1274Y909D01*
G37*
D02*
G36*
X1274Y909D02*
X1274Y907D01*
X1606Y907D01*
X1606Y909D01*
X1274Y909D01*
G37*
D02*
G36*
X1274Y909D02*
X1274Y907D01*
X1606Y907D01*
X1606Y909D01*
X1274Y909D01*
G37*
D02*
G36*
X1274Y907D02*
X1274Y843D01*
X1272Y843D01*
X1272Y837D01*
X1270Y837D01*
X1270Y833D01*
X1268Y833D01*
X1268Y831D01*
X1266Y831D01*
X1266Y827D01*
X1264Y827D01*
X1264Y825D01*
X1260Y825D01*
X1260Y823D01*
X1258Y823D01*
X1258Y821D01*
X1254Y821D01*
X1254Y819D01*
X1250Y819D01*
X1250Y817D01*
X1606Y817D01*
X1606Y907D01*
X1274Y907D01*
G37*
D02*
G36*
X374Y817D02*
X374Y815D01*
X1606Y815D01*
X1606Y817D01*
X374Y817D01*
G37*
D02*
G36*
X374Y817D02*
X374Y815D01*
X1606Y815D01*
X1606Y817D01*
X374Y817D01*
G37*
D02*
G36*
X374Y815D02*
X374Y785D01*
X1606Y785D01*
X1606Y815D01*
X374Y815D01*
G37*
D02*
G36*
X1174Y617D02*
X1174Y595D01*
X1244Y595D01*
X1244Y593D01*
X1250Y593D01*
X1250Y591D01*
X1256Y591D01*
X1256Y589D01*
X1258Y589D01*
X1258Y587D01*
X1262Y587D01*
X1262Y585D01*
X1550Y585D01*
X1550Y583D01*
X1556Y583D01*
X1556Y581D01*
X1560Y581D01*
X1560Y579D01*
X1562Y579D01*
X1562Y577D01*
X1564Y577D01*
X1564Y575D01*
X1566Y575D01*
X1566Y573D01*
X1568Y573D01*
X1568Y571D01*
X1570Y571D01*
X1570Y567D01*
X1572Y567D01*
X1572Y563D01*
X1574Y563D01*
X1574Y551D01*
X1576Y551D01*
X1576Y501D01*
X1646Y501D01*
X1646Y499D01*
X1652Y499D01*
X1652Y497D01*
X1658Y497D01*
X1658Y495D01*
X1662Y495D01*
X1662Y493D01*
X1666Y493D01*
X1666Y491D01*
X1668Y491D01*
X1668Y489D01*
X1670Y489D01*
X1670Y487D01*
X1740Y487D01*
X1740Y485D01*
X1752Y485D01*
X1752Y483D01*
X1756Y483D01*
X1756Y481D01*
X1760Y481D01*
X1760Y479D01*
X1762Y479D01*
X1762Y477D01*
X1764Y477D01*
X1764Y475D01*
X1766Y475D01*
X1766Y473D01*
X1768Y473D01*
X1768Y471D01*
X1770Y471D01*
X1770Y467D01*
X1772Y467D01*
X1772Y461D01*
X1774Y461D01*
X1774Y143D01*
X1772Y143D01*
X1772Y137D01*
X1770Y137D01*
X1770Y133D01*
X1768Y133D01*
X1768Y129D01*
X1766Y129D01*
X1766Y127D01*
X1764Y127D01*
X1764Y125D01*
X1760Y125D01*
X1760Y123D01*
X1758Y123D01*
X1758Y121D01*
X1754Y121D01*
X1754Y119D01*
X1748Y119D01*
X1748Y117D01*
X1806Y117D01*
X1806Y617D01*
X1174Y617D01*
G37*
D02*
G36*
X1174Y595D02*
X1174Y575D01*
X1176Y575D01*
X1176Y571D01*
X1178Y571D01*
X1178Y567D01*
X1200Y567D01*
X1200Y571D01*
X1202Y571D01*
X1202Y573D01*
X1204Y573D01*
X1204Y577D01*
X1206Y577D01*
X1206Y579D01*
X1208Y579D01*
X1208Y581D01*
X1210Y581D01*
X1210Y583D01*
X1212Y583D01*
X1212Y585D01*
X1216Y585D01*
X1216Y587D01*
X1218Y587D01*
X1218Y589D01*
X1222Y589D01*
X1222Y591D01*
X1226Y591D01*
X1226Y593D01*
X1234Y593D01*
X1234Y595D01*
X1174Y595D01*
G37*
D02*
G36*
X568Y517D02*
X568Y515D01*
X566Y515D01*
X566Y495D01*
X568Y495D01*
X568Y493D01*
X570Y493D01*
X570Y491D01*
X572Y491D01*
X572Y489D01*
X574Y489D01*
X574Y487D01*
X576Y487D01*
X576Y485D01*
X578Y485D01*
X578Y483D01*
X580Y483D01*
X580Y479D01*
X582Y479D01*
X582Y475D01*
X584Y475D01*
X584Y469D01*
X586Y469D01*
X586Y461D01*
X588Y461D01*
X588Y455D01*
X586Y455D01*
X586Y447D01*
X584Y447D01*
X584Y441D01*
X582Y441D01*
X582Y437D01*
X580Y437D01*
X580Y433D01*
X578Y433D01*
X578Y431D01*
X576Y431D01*
X576Y429D01*
X574Y429D01*
X574Y427D01*
X572Y427D01*
X572Y425D01*
X570Y425D01*
X570Y403D01*
X572Y403D01*
X572Y401D01*
X574Y401D01*
X574Y399D01*
X576Y399D01*
X576Y397D01*
X578Y397D01*
X578Y393D01*
X580Y393D01*
X580Y389D01*
X582Y389D01*
X582Y387D01*
X584Y387D01*
X584Y381D01*
X586Y381D01*
X586Y371D01*
X588Y371D01*
X588Y367D01*
X586Y367D01*
X586Y357D01*
X584Y357D01*
X584Y353D01*
X582Y353D01*
X582Y349D01*
X580Y349D01*
X580Y345D01*
X578Y345D01*
X578Y343D01*
X576Y343D01*
X576Y341D01*
X574Y341D01*
X574Y337D01*
X572Y337D01*
X572Y335D01*
X568Y335D01*
X568Y333D01*
X566Y333D01*
X566Y313D01*
X568Y313D01*
X568Y311D01*
X570Y311D01*
X570Y309D01*
X572Y309D01*
X572Y307D01*
X574Y307D01*
X574Y305D01*
X588Y305D01*
X588Y303D01*
X604Y303D01*
X604Y301D01*
X944Y301D01*
X944Y303D01*
X936Y303D01*
X936Y305D01*
X930Y305D01*
X930Y307D01*
X926Y307D01*
X926Y309D01*
X922Y309D01*
X922Y311D01*
X918Y311D01*
X918Y313D01*
X916Y313D01*
X916Y315D01*
X914Y315D01*
X914Y317D01*
X910Y317D01*
X910Y319D01*
X832Y319D01*
X832Y321D01*
X826Y321D01*
X826Y323D01*
X822Y323D01*
X822Y325D01*
X820Y325D01*
X820Y327D01*
X818Y327D01*
X818Y329D01*
X816Y329D01*
X816Y331D01*
X814Y331D01*
X814Y333D01*
X812Y333D01*
X812Y337D01*
X810Y337D01*
X810Y343D01*
X808Y343D01*
X808Y517D01*
X568Y517D01*
G37*
D02*
G36*
X1576Y501D02*
X1576Y469D01*
X1596Y469D01*
X1596Y473D01*
X1598Y473D01*
X1598Y475D01*
X1600Y475D01*
X1600Y479D01*
X1602Y479D01*
X1602Y481D01*
X1604Y481D01*
X1604Y483D01*
X1606Y483D01*
X1606Y485D01*
X1608Y485D01*
X1608Y487D01*
X1610Y487D01*
X1610Y489D01*
X1612Y489D01*
X1612Y491D01*
X1616Y491D01*
X1616Y493D01*
X1618Y493D01*
X1618Y495D01*
X1622Y495D01*
X1622Y497D01*
X1628Y497D01*
X1628Y499D01*
X1634Y499D01*
X1634Y501D01*
X1576Y501D01*
G37*
D02*
G36*
X1672Y487D02*
X1672Y485D01*
X1738Y485D01*
X1738Y487D01*
X1672Y487D01*
G37*
D02*
G36*
X1180Y459D02*
X1180Y457D01*
X1178Y457D01*
X1178Y453D01*
X1176Y453D01*
X1176Y451D01*
X1174Y451D01*
X1174Y343D01*
X1172Y343D01*
X1172Y339D01*
X1170Y339D01*
X1170Y335D01*
X1168Y335D01*
X1168Y331D01*
X1166Y331D01*
X1166Y329D01*
X1164Y329D01*
X1164Y327D01*
X1162Y327D01*
X1162Y325D01*
X1158Y325D01*
X1158Y323D01*
X1156Y323D01*
X1156Y321D01*
X1150Y321D01*
X1150Y319D01*
X994Y319D01*
X994Y317D01*
X992Y317D01*
X992Y315D01*
X990Y315D01*
X990Y313D01*
X986Y313D01*
X986Y311D01*
X982Y311D01*
X982Y309D01*
X980Y309D01*
X980Y307D01*
X974Y307D01*
X974Y305D01*
X970Y305D01*
X970Y303D01*
X960Y303D01*
X960Y301D01*
X1206Y301D01*
X1206Y357D01*
X1204Y357D01*
X1204Y451D01*
X1202Y451D01*
X1202Y455D01*
X1200Y455D01*
X1200Y459D01*
X1180Y459D01*
G37*
D02*
G36*
X620Y301D02*
X620Y299D01*
X1206Y299D01*
X1206Y301D01*
X620Y301D01*
G37*
D02*
G36*
X620Y301D02*
X620Y299D01*
X1206Y299D01*
X1206Y301D01*
X620Y301D01*
G37*
D02*
G36*
X636Y299D02*
X636Y297D01*
X650Y297D01*
X650Y295D01*
X666Y295D01*
X666Y293D01*
X682Y293D01*
X682Y291D01*
X698Y291D01*
X698Y289D01*
X714Y289D01*
X714Y287D01*
X730Y287D01*
X730Y285D01*
X744Y285D01*
X744Y283D01*
X752Y283D01*
X752Y281D01*
X756Y281D01*
X756Y279D01*
X760Y279D01*
X760Y277D01*
X762Y277D01*
X762Y275D01*
X764Y275D01*
X764Y273D01*
X766Y273D01*
X766Y271D01*
X768Y271D01*
X768Y267D01*
X770Y267D01*
X770Y263D01*
X772Y263D01*
X772Y255D01*
X774Y255D01*
X774Y117D01*
X1232Y117D01*
X1232Y119D01*
X1226Y119D01*
X1226Y121D01*
X1222Y121D01*
X1222Y123D01*
X1220Y123D01*
X1220Y125D01*
X1216Y125D01*
X1216Y127D01*
X1214Y127D01*
X1214Y131D01*
X1212Y131D01*
X1212Y133D01*
X1210Y133D01*
X1210Y137D01*
X1208Y137D01*
X1208Y143D01*
X1206Y143D01*
X1206Y299D01*
X636Y299D01*
G37*
D02*
G36*
X774Y117D02*
X774Y115D01*
X1806Y115D01*
X1806Y117D01*
X774Y117D01*
G37*
D02*
G36*
X774Y117D02*
X774Y115D01*
X1806Y115D01*
X1806Y117D01*
X774Y117D01*
G37*
D02*
G36*
X774Y115D02*
X774Y85D01*
X1806Y85D01*
X1806Y115D01*
X774Y115D01*
G37*
D02*
G36*
X1270Y517D02*
X1270Y499D01*
X1272Y499D01*
X1272Y497D01*
X1274Y497D01*
X1274Y493D01*
X1276Y493D01*
X1276Y491D01*
X1278Y491D01*
X1278Y485D01*
X1280Y485D01*
X1280Y479D01*
X1282Y479D01*
X1282Y467D01*
X1280Y467D01*
X1280Y461D01*
X1278Y461D01*
X1278Y457D01*
X1276Y457D01*
X1276Y453D01*
X1274Y453D01*
X1274Y449D01*
X1272Y449D01*
X1272Y431D01*
X1438Y431D01*
X1438Y429D01*
X1446Y429D01*
X1446Y427D01*
X1450Y427D01*
X1450Y425D01*
X1454Y425D01*
X1454Y423D01*
X1458Y423D01*
X1458Y421D01*
X1462Y421D01*
X1462Y419D01*
X1464Y419D01*
X1464Y417D01*
X1466Y417D01*
X1466Y415D01*
X1468Y415D01*
X1468Y413D01*
X1472Y413D01*
X1472Y411D01*
X1474Y411D01*
X1474Y407D01*
X1476Y407D01*
X1476Y405D01*
X1478Y405D01*
X1478Y403D01*
X1480Y403D01*
X1480Y399D01*
X1482Y399D01*
X1482Y397D01*
X1484Y397D01*
X1484Y393D01*
X1486Y393D01*
X1486Y389D01*
X1506Y389D01*
X1506Y517D01*
X1270Y517D01*
G37*
D02*
G36*
X1272Y431D02*
X1272Y361D01*
X1274Y361D01*
X1274Y301D01*
X1418Y301D01*
X1418Y303D01*
X1410Y303D01*
X1410Y305D01*
X1404Y305D01*
X1404Y307D01*
X1400Y307D01*
X1400Y309D01*
X1396Y309D01*
X1396Y311D01*
X1392Y311D01*
X1392Y313D01*
X1390Y313D01*
X1390Y315D01*
X1388Y315D01*
X1388Y317D01*
X1384Y317D01*
X1384Y319D01*
X1382Y319D01*
X1382Y321D01*
X1380Y321D01*
X1380Y323D01*
X1378Y323D01*
X1378Y325D01*
X1376Y325D01*
X1376Y329D01*
X1374Y329D01*
X1374Y331D01*
X1372Y331D01*
X1372Y335D01*
X1370Y335D01*
X1370Y337D01*
X1368Y337D01*
X1368Y341D01*
X1366Y341D01*
X1366Y347D01*
X1364Y347D01*
X1364Y353D01*
X1362Y353D01*
X1362Y379D01*
X1364Y379D01*
X1364Y387D01*
X1366Y387D01*
X1366Y391D01*
X1368Y391D01*
X1368Y395D01*
X1370Y395D01*
X1370Y399D01*
X1372Y399D01*
X1372Y401D01*
X1374Y401D01*
X1374Y405D01*
X1376Y405D01*
X1376Y407D01*
X1378Y407D01*
X1378Y409D01*
X1380Y409D01*
X1380Y411D01*
X1382Y411D01*
X1382Y413D01*
X1384Y413D01*
X1384Y415D01*
X1386Y415D01*
X1386Y417D01*
X1388Y417D01*
X1388Y419D01*
X1392Y419D01*
X1392Y421D01*
X1394Y421D01*
X1394Y423D01*
X1398Y423D01*
X1398Y425D01*
X1402Y425D01*
X1402Y427D01*
X1408Y427D01*
X1408Y429D01*
X1414Y429D01*
X1414Y431D01*
X1272Y431D01*
G37*
D02*
G36*
X1488Y351D02*
X1488Y345D01*
X1486Y345D01*
X1486Y341D01*
X1484Y341D01*
X1484Y337D01*
X1482Y337D01*
X1482Y333D01*
X1480Y333D01*
X1480Y331D01*
X1478Y331D01*
X1478Y327D01*
X1476Y327D01*
X1476Y325D01*
X1474Y325D01*
X1474Y323D01*
X1472Y323D01*
X1472Y321D01*
X1470Y321D01*
X1470Y319D01*
X1468Y319D01*
X1468Y317D01*
X1466Y317D01*
X1466Y315D01*
X1464Y315D01*
X1464Y313D01*
X1460Y313D01*
X1460Y311D01*
X1456Y311D01*
X1456Y309D01*
X1454Y309D01*
X1454Y307D01*
X1448Y307D01*
X1448Y305D01*
X1444Y305D01*
X1444Y303D01*
X1630Y303D01*
X1630Y305D01*
X1624Y305D01*
X1624Y307D01*
X1620Y307D01*
X1620Y309D01*
X1616Y309D01*
X1616Y311D01*
X1614Y311D01*
X1614Y313D01*
X1612Y313D01*
X1612Y315D01*
X1608Y315D01*
X1608Y317D01*
X1578Y317D01*
X1578Y319D01*
X1532Y319D01*
X1532Y321D01*
X1526Y321D01*
X1526Y323D01*
X1522Y323D01*
X1522Y325D01*
X1520Y325D01*
X1520Y327D01*
X1518Y327D01*
X1518Y329D01*
X1516Y329D01*
X1516Y331D01*
X1514Y331D01*
X1514Y333D01*
X1512Y333D01*
X1512Y337D01*
X1510Y337D01*
X1510Y341D01*
X1508Y341D01*
X1508Y351D01*
X1488Y351D01*
G37*
D02*
G36*
X1686Y339D02*
X1686Y333D01*
X1684Y333D01*
X1684Y331D01*
X1682Y331D01*
X1682Y327D01*
X1680Y327D01*
X1680Y323D01*
X1678Y323D01*
X1678Y321D01*
X1676Y321D01*
X1676Y319D01*
X1674Y319D01*
X1674Y317D01*
X1672Y317D01*
X1672Y315D01*
X1670Y315D01*
X1670Y313D01*
X1666Y313D01*
X1666Y311D01*
X1664Y311D01*
X1664Y309D01*
X1660Y309D01*
X1660Y307D01*
X1656Y307D01*
X1656Y305D01*
X1650Y305D01*
X1650Y303D01*
X1706Y303D01*
X1706Y339D01*
X1686Y339D01*
G37*
D02*
G36*
X1434Y303D02*
X1434Y301D01*
X1706Y301D01*
X1706Y303D01*
X1434Y303D01*
G37*
D02*
G36*
X1434Y303D02*
X1434Y301D01*
X1706Y301D01*
X1706Y303D01*
X1434Y303D01*
G37*
D02*
G36*
X1274Y301D02*
X1274Y299D01*
X1706Y299D01*
X1706Y301D01*
X1274Y301D01*
G37*
D02*
G36*
X1274Y301D02*
X1274Y299D01*
X1706Y299D01*
X1706Y301D01*
X1274Y301D01*
G37*
D02*
G36*
X1274Y299D02*
X1274Y185D01*
X1706Y185D01*
X1706Y299D01*
X1274Y299D01*
G37*
D02*
G36*
X1576Y435D02*
X1576Y387D01*
X1580Y387D01*
X1580Y385D01*
X1608Y385D01*
X1608Y387D01*
X1610Y387D01*
X1610Y389D01*
X1612Y389D01*
X1612Y391D01*
X1616Y391D01*
X1616Y411D01*
X1614Y411D01*
X1614Y413D01*
X1612Y413D01*
X1612Y415D01*
X1608Y415D01*
X1608Y417D01*
X1606Y417D01*
X1606Y419D01*
X1604Y419D01*
X1604Y421D01*
X1602Y421D01*
X1602Y425D01*
X1600Y425D01*
X1600Y427D01*
X1598Y427D01*
X1598Y431D01*
X1596Y431D01*
X1596Y435D01*
X1576Y435D01*
G37*
D02*
G36*
X1672Y417D02*
X1672Y415D01*
X1670Y415D01*
X1670Y413D01*
X1666Y413D01*
X1666Y391D01*
X1668Y391D01*
X1668Y389D01*
X1670Y389D01*
X1670Y387D01*
X1672Y387D01*
X1672Y385D01*
X1674Y385D01*
X1674Y383D01*
X1676Y383D01*
X1676Y381D01*
X1678Y381D01*
X1678Y379D01*
X1680Y379D01*
X1680Y377D01*
X1682Y377D01*
X1682Y373D01*
X1684Y373D01*
X1684Y369D01*
X1686Y369D01*
X1686Y363D01*
X1706Y363D01*
X1706Y417D01*
X1672Y417D01*
G37*
D02*
G54D19*
X1755Y1460D02*
X1784Y1460D01*
X1753Y1459D02*
X1787Y1459D01*
X1751Y1458D02*
X1788Y1458D01*
X1750Y1457D02*
X1790Y1457D01*
X1749Y1456D02*
X1791Y1456D01*
X1748Y1455D02*
X1791Y1455D01*
X1747Y1454D02*
X1792Y1454D01*
X1746Y1453D02*
X1793Y1453D01*
X1745Y1452D02*
X1794Y1452D01*
X1745Y1451D02*
X1795Y1451D01*
X1744Y1450D02*
X1756Y1450D01*
X1783Y1450D02*
X1796Y1450D01*
X1744Y1449D02*
X1755Y1449D01*
X1784Y1449D02*
X1796Y1449D01*
X1743Y1448D02*
X1754Y1448D01*
X1785Y1448D02*
X1797Y1448D01*
X1743Y1447D02*
X1753Y1447D01*
X1786Y1447D02*
X1797Y1447D01*
X1742Y1446D02*
X1753Y1446D01*
X1787Y1446D02*
X1797Y1446D01*
X1742Y1445D02*
X1752Y1445D01*
X1788Y1445D02*
X1797Y1445D01*
X1742Y1444D02*
X1751Y1444D01*
X1788Y1444D02*
X1798Y1444D01*
X1742Y1443D02*
X1751Y1443D01*
X1788Y1443D02*
X1798Y1443D01*
X1742Y1442D02*
X1751Y1442D01*
X1789Y1442D02*
X1798Y1442D01*
X1742Y1441D02*
X1751Y1441D01*
X1789Y1441D02*
X1798Y1441D01*
X1742Y1440D02*
X1751Y1440D01*
X1789Y1440D02*
X1798Y1440D01*
X1742Y1439D02*
X1751Y1439D01*
X1789Y1439D02*
X1798Y1439D01*
X1742Y1438D02*
X1751Y1438D01*
X1789Y1438D02*
X1798Y1438D01*
X1742Y1437D02*
X1751Y1437D01*
X1789Y1437D02*
X1798Y1437D01*
X1742Y1436D02*
X1751Y1436D01*
X1789Y1436D02*
X1798Y1436D01*
X1742Y1435D02*
X1751Y1435D01*
X1789Y1435D02*
X1798Y1435D01*
X1742Y1434D02*
X1751Y1434D01*
X1789Y1434D02*
X1798Y1434D01*
X1742Y1433D02*
X1751Y1433D01*
X1789Y1433D02*
X1798Y1433D01*
X1742Y1432D02*
X1751Y1432D01*
X1789Y1432D02*
X1798Y1432D01*
X1742Y1431D02*
X1751Y1431D01*
X1789Y1431D02*
X1798Y1431D01*
X1742Y1430D02*
X1751Y1430D01*
X1789Y1430D02*
X1798Y1430D01*
X1742Y1429D02*
X1751Y1429D01*
X1788Y1429D02*
X1798Y1429D01*
X1742Y1428D02*
X1751Y1428D01*
X1788Y1428D02*
X1798Y1428D01*
X1742Y1427D02*
X1752Y1427D01*
X1788Y1427D02*
X1797Y1427D01*
X1742Y1426D02*
X1753Y1426D01*
X1787Y1426D02*
X1797Y1426D01*
X1743Y1425D02*
X1753Y1425D01*
X1786Y1425D02*
X1797Y1425D01*
X1743Y1424D02*
X1754Y1424D01*
X1786Y1424D02*
X1796Y1424D01*
X1744Y1423D02*
X1755Y1423D01*
X1785Y1423D02*
X1796Y1423D01*
X1744Y1422D02*
X1756Y1422D01*
X1783Y1422D02*
X1795Y1422D01*
X1745Y1421D02*
X1795Y1421D01*
X1746Y1420D02*
X1794Y1420D01*
X1746Y1419D02*
X1793Y1419D01*
X1747Y1418D02*
X1792Y1418D01*
X1748Y1417D02*
X1791Y1417D01*
X1749Y1416D02*
X1791Y1416D01*
X1750Y1415D02*
X1789Y1415D01*
X1751Y1414D02*
X1788Y1414D01*
X1753Y1413D02*
X1787Y1413D01*
X1755Y1412D02*
X1784Y1412D01*
X1723Y1388D02*
X1797Y1388D01*
X1722Y1387D02*
X1799Y1387D01*
X1721Y1386D02*
X1799Y1386D01*
X1721Y1385D02*
X1800Y1385D01*
X1721Y1384D02*
X1800Y1384D01*
X1721Y1383D02*
X1800Y1383D01*
X1721Y1382D02*
X1799Y1382D01*
X1722Y1381D02*
X1799Y1381D01*
X1723Y1380D02*
X1798Y1380D01*
X1725Y1379D02*
X1796Y1379D01*
X1746Y1378D02*
X1760Y1378D01*
X1779Y1378D02*
X1793Y1378D01*
X1745Y1377D02*
X1759Y1377D01*
X1781Y1377D02*
X1794Y1377D01*
X1744Y1376D02*
X1758Y1376D01*
X1782Y1376D02*
X1795Y1376D01*
X1743Y1375D02*
X1757Y1375D01*
X1783Y1375D02*
X1796Y1375D01*
X1743Y1374D02*
X1756Y1374D01*
X1784Y1374D02*
X1797Y1374D01*
X1742Y1373D02*
X1755Y1373D01*
X1785Y1373D02*
X1797Y1373D01*
X1742Y1372D02*
X1754Y1372D01*
X1786Y1372D02*
X1798Y1372D01*
X1741Y1371D02*
X1753Y1371D01*
X1787Y1371D02*
X1798Y1371D01*
X1741Y1370D02*
X1752Y1370D01*
X1788Y1370D02*
X1799Y1370D01*
X1740Y1369D02*
X1751Y1369D01*
X1789Y1369D02*
X1799Y1369D01*
X1740Y1368D02*
X1750Y1368D01*
X1790Y1368D02*
X1799Y1368D01*
X1740Y1367D02*
X1749Y1367D01*
X1790Y1367D02*
X1800Y1367D01*
X1740Y1366D02*
X1749Y1366D01*
X1790Y1366D02*
X1800Y1366D01*
X1740Y1365D02*
X1749Y1365D01*
X1791Y1365D02*
X1800Y1365D01*
X1740Y1364D02*
X1749Y1364D01*
X1791Y1364D02*
X1800Y1364D01*
X1740Y1363D02*
X1749Y1363D01*
X1791Y1363D02*
X1800Y1363D01*
X1740Y1362D02*
X1749Y1362D01*
X1791Y1362D02*
X1800Y1362D01*
X1740Y1361D02*
X1749Y1361D01*
X1790Y1361D02*
X1800Y1361D01*
X1740Y1360D02*
X1750Y1360D01*
X1790Y1360D02*
X1799Y1360D01*
X1740Y1359D02*
X1751Y1359D01*
X1789Y1359D02*
X1799Y1359D01*
X1741Y1358D02*
X1751Y1358D01*
X1788Y1358D02*
X1799Y1358D01*
X1741Y1357D02*
X1752Y1357D01*
X1787Y1357D02*
X1798Y1357D01*
X1741Y1356D02*
X1753Y1356D01*
X1786Y1356D02*
X1798Y1356D01*
X1742Y1355D02*
X1754Y1355D01*
X1785Y1355D02*
X1798Y1355D01*
X1743Y1354D02*
X1755Y1354D01*
X1785Y1354D02*
X1797Y1354D01*
X1743Y1353D02*
X1756Y1353D01*
X1784Y1353D02*
X1796Y1353D01*
X1744Y1352D02*
X1757Y1352D01*
X1783Y1352D02*
X1795Y1352D01*
X1745Y1351D02*
X1757Y1351D01*
X1782Y1351D02*
X1795Y1351D01*
X1746Y1350D02*
X1759Y1350D01*
X1781Y1350D02*
X1794Y1350D01*
X1747Y1349D02*
X1793Y1349D01*
X1748Y1348D02*
X1792Y1348D01*
X1749Y1347D02*
X1791Y1347D01*
X1749Y1346D02*
X1790Y1346D01*
X1750Y1345D02*
X1789Y1345D01*
X1751Y1344D02*
X1788Y1344D01*
X1752Y1343D02*
X1787Y1343D01*
X1753Y1342D02*
X1786Y1342D01*
X1755Y1341D02*
X1784Y1341D01*
X1757Y1340D02*
X1782Y1340D01*
X1755Y1316D02*
X1784Y1316D01*
X1753Y1315D02*
X1787Y1315D01*
X1751Y1314D02*
X1788Y1314D01*
X1750Y1313D02*
X1790Y1313D01*
X1749Y1312D02*
X1791Y1312D01*
X1748Y1311D02*
X1791Y1311D01*
X1747Y1310D02*
X1792Y1310D01*
X1746Y1309D02*
X1793Y1309D01*
X1745Y1308D02*
X1794Y1308D01*
X1745Y1307D02*
X1795Y1307D01*
X1744Y1306D02*
X1756Y1306D01*
X1763Y1306D02*
X1772Y1306D01*
X1783Y1306D02*
X1796Y1306D01*
X1743Y1305D02*
X1755Y1305D01*
X1763Y1305D02*
X1772Y1305D01*
X1784Y1305D02*
X1796Y1305D01*
X1743Y1304D02*
X1754Y1304D01*
X1763Y1304D02*
X1772Y1304D01*
X1785Y1304D02*
X1797Y1304D01*
X1743Y1303D02*
X1753Y1303D01*
X1763Y1303D02*
X1772Y1303D01*
X1786Y1303D02*
X1797Y1303D01*
X1742Y1302D02*
X1753Y1302D01*
X1763Y1302D02*
X1772Y1302D01*
X1787Y1302D02*
X1797Y1302D01*
X1742Y1301D02*
X1752Y1301D01*
X1763Y1301D02*
X1772Y1301D01*
X1788Y1301D02*
X1797Y1301D01*
X1742Y1300D02*
X1751Y1300D01*
X1763Y1300D02*
X1772Y1300D01*
X1788Y1300D02*
X1798Y1300D01*
X1742Y1299D02*
X1751Y1299D01*
X1763Y1299D02*
X1772Y1299D01*
X1788Y1299D02*
X1798Y1299D01*
X1742Y1298D02*
X1751Y1298D01*
X1763Y1298D02*
X1772Y1298D01*
X1789Y1298D02*
X1798Y1298D01*
X1742Y1297D02*
X1751Y1297D01*
X1763Y1297D02*
X1772Y1297D01*
X1789Y1297D02*
X1798Y1297D01*
X1742Y1296D02*
X1751Y1296D01*
X1763Y1296D02*
X1772Y1296D01*
X1789Y1296D02*
X1798Y1296D01*
X1742Y1295D02*
X1751Y1295D01*
X1763Y1295D02*
X1772Y1295D01*
X1789Y1295D02*
X1798Y1295D01*
X1742Y1294D02*
X1751Y1294D01*
X1763Y1294D02*
X1772Y1294D01*
X1789Y1294D02*
X1798Y1294D01*
X1742Y1293D02*
X1751Y1293D01*
X1763Y1293D02*
X1772Y1293D01*
X1789Y1293D02*
X1798Y1293D01*
X1742Y1292D02*
X1751Y1292D01*
X1763Y1292D02*
X1772Y1292D01*
X1789Y1292D02*
X1798Y1292D01*
X1742Y1291D02*
X1751Y1291D01*
X1763Y1291D02*
X1772Y1291D01*
X1789Y1291D02*
X1798Y1291D01*
X1742Y1290D02*
X1751Y1290D01*
X1763Y1290D02*
X1772Y1290D01*
X1789Y1290D02*
X1798Y1290D01*
X1742Y1289D02*
X1751Y1289D01*
X1763Y1289D02*
X1772Y1289D01*
X1789Y1289D02*
X1798Y1289D01*
X1742Y1288D02*
X1751Y1288D01*
X1763Y1288D02*
X1772Y1288D01*
X1789Y1288D02*
X1798Y1288D01*
X1742Y1287D02*
X1751Y1287D01*
X1763Y1287D02*
X1772Y1287D01*
X1789Y1287D02*
X1798Y1287D01*
X1742Y1286D02*
X1751Y1286D01*
X1763Y1286D02*
X1772Y1286D01*
X1789Y1286D02*
X1798Y1286D01*
X1742Y1285D02*
X1751Y1285D01*
X1763Y1285D02*
X1772Y1285D01*
X1788Y1285D02*
X1798Y1285D01*
X1742Y1284D02*
X1751Y1284D01*
X1763Y1284D02*
X1772Y1284D01*
X1788Y1284D02*
X1798Y1284D01*
X1742Y1283D02*
X1751Y1283D01*
X1763Y1283D02*
X1772Y1283D01*
X1788Y1283D02*
X1797Y1283D01*
X1742Y1282D02*
X1751Y1282D01*
X1763Y1282D02*
X1772Y1282D01*
X1787Y1282D02*
X1797Y1282D01*
X1742Y1281D02*
X1751Y1281D01*
X1763Y1281D02*
X1772Y1281D01*
X1786Y1281D02*
X1797Y1281D01*
X1742Y1280D02*
X1751Y1280D01*
X1763Y1280D02*
X1772Y1280D01*
X1786Y1280D02*
X1796Y1280D01*
X1742Y1279D02*
X1751Y1279D01*
X1763Y1279D02*
X1772Y1279D01*
X1785Y1279D02*
X1796Y1279D01*
X1742Y1278D02*
X1751Y1278D01*
X1763Y1278D02*
X1772Y1278D01*
X1783Y1278D02*
X1795Y1278D01*
X1742Y1277D02*
X1751Y1277D01*
X1763Y1277D02*
X1795Y1277D01*
X1742Y1276D02*
X1751Y1276D01*
X1763Y1276D02*
X1794Y1276D01*
X1742Y1275D02*
X1751Y1275D01*
X1763Y1275D02*
X1793Y1275D01*
X1742Y1274D02*
X1751Y1274D01*
X1763Y1274D02*
X1792Y1274D01*
X1742Y1273D02*
X1751Y1273D01*
X1763Y1273D02*
X1791Y1273D01*
X1742Y1272D02*
X1751Y1272D01*
X1763Y1272D02*
X1791Y1272D01*
X1742Y1271D02*
X1751Y1271D01*
X1763Y1271D02*
X1789Y1271D01*
X1742Y1270D02*
X1750Y1270D01*
X1764Y1270D02*
X1788Y1270D01*
X1743Y1269D02*
X1750Y1269D01*
X1764Y1269D02*
X1787Y1269D01*
X1744Y1268D02*
X1749Y1268D01*
X1765Y1268D02*
X1784Y1268D01*
X1744Y1244D02*
X1795Y1244D01*
X1743Y1243D02*
X1796Y1243D01*
X1742Y1242D02*
X1797Y1242D01*
X1742Y1241D02*
X1797Y1241D01*
X1742Y1240D02*
X1798Y1240D01*
X1742Y1239D02*
X1797Y1239D01*
X1742Y1238D02*
X1797Y1238D01*
X1743Y1237D02*
X1797Y1237D01*
X1744Y1236D02*
X1796Y1236D01*
X1746Y1235D02*
X1794Y1235D01*
X1779Y1234D02*
X1790Y1234D01*
X1779Y1233D02*
X1790Y1233D01*
X1780Y1232D02*
X1791Y1232D01*
X1780Y1231D02*
X1792Y1231D01*
X1781Y1230D02*
X1792Y1230D01*
X1782Y1229D02*
X1793Y1229D01*
X1782Y1228D02*
X1793Y1228D01*
X1783Y1227D02*
X1794Y1227D01*
X1784Y1226D02*
X1795Y1226D01*
X1784Y1225D02*
X1795Y1225D01*
X1785Y1224D02*
X1796Y1224D01*
X1786Y1223D02*
X1796Y1223D01*
X1786Y1222D02*
X1797Y1222D01*
X1787Y1221D02*
X1797Y1221D01*
X1788Y1220D02*
X1797Y1220D01*
X1788Y1219D02*
X1798Y1219D01*
X1789Y1218D02*
X1798Y1218D01*
X1789Y1217D02*
X1798Y1217D01*
X1789Y1216D02*
X1798Y1216D01*
X1789Y1215D02*
X1798Y1215D01*
X1789Y1214D02*
X1798Y1214D01*
X1789Y1213D02*
X1798Y1213D01*
X1789Y1212D02*
X1798Y1212D01*
X1788Y1211D02*
X1798Y1211D01*
X1788Y1210D02*
X1798Y1210D01*
X1788Y1209D02*
X1797Y1209D01*
X1787Y1208D02*
X1797Y1208D01*
X1785Y1207D02*
X1797Y1207D01*
X1769Y1206D02*
X1797Y1206D01*
X1746Y1205D02*
X1796Y1205D01*
X1744Y1204D02*
X1796Y1204D01*
X1743Y1203D02*
X1795Y1203D01*
X1742Y1202D02*
X1794Y1202D01*
X1742Y1201D02*
X1793Y1201D01*
X1742Y1200D02*
X1792Y1200D01*
X1742Y1199D02*
X1791Y1199D01*
X1742Y1198D02*
X1789Y1198D01*
X1743Y1197D02*
X1787Y1197D01*
X1744Y1196D02*
X1770Y1196D01*
X1744Y1172D02*
X1817Y1172D01*
X1743Y1171D02*
X1818Y1171D01*
X1742Y1170D02*
X1818Y1170D01*
X1742Y1169D02*
X1819Y1169D01*
X1742Y1168D02*
X1819Y1168D01*
X1742Y1167D02*
X1819Y1167D01*
X1742Y1166D02*
X1818Y1166D01*
X1743Y1165D02*
X1818Y1165D01*
X1744Y1164D02*
X1817Y1164D01*
X1746Y1163D02*
X1815Y1163D01*
X1769Y1162D02*
X1792Y1162D01*
X1768Y1161D02*
X1792Y1161D01*
X1767Y1160D02*
X1793Y1160D01*
X1767Y1159D02*
X1779Y1159D01*
X1782Y1159D02*
X1794Y1159D01*
X1766Y1158D02*
X1778Y1158D01*
X1783Y1158D02*
X1795Y1158D01*
X1765Y1157D02*
X1777Y1157D01*
X1783Y1157D02*
X1796Y1157D01*
X1764Y1156D02*
X1776Y1156D01*
X1784Y1156D02*
X1797Y1156D01*
X1763Y1155D02*
X1775Y1155D01*
X1785Y1155D02*
X1798Y1155D01*
X1762Y1154D02*
X1775Y1154D01*
X1786Y1154D02*
X1798Y1154D01*
X1761Y1153D02*
X1774Y1153D01*
X1787Y1153D02*
X1799Y1153D01*
X1761Y1152D02*
X1773Y1152D01*
X1788Y1152D02*
X1800Y1152D01*
X1760Y1151D02*
X1772Y1151D01*
X1789Y1151D02*
X1801Y1151D01*
X1759Y1150D02*
X1771Y1150D01*
X1789Y1150D02*
X1802Y1150D01*
X1758Y1149D02*
X1770Y1149D01*
X1790Y1149D02*
X1803Y1149D01*
X1757Y1148D02*
X1769Y1148D01*
X1791Y1148D02*
X1804Y1148D01*
X1756Y1147D02*
X1769Y1147D01*
X1792Y1147D02*
X1804Y1147D01*
X1755Y1146D02*
X1768Y1146D01*
X1793Y1146D02*
X1805Y1146D01*
X1755Y1145D02*
X1767Y1145D01*
X1794Y1145D02*
X1806Y1145D01*
X1754Y1144D02*
X1766Y1144D01*
X1795Y1144D02*
X1807Y1144D01*
X1753Y1143D02*
X1765Y1143D01*
X1795Y1143D02*
X1808Y1143D01*
X1752Y1142D02*
X1764Y1142D01*
X1796Y1142D02*
X1809Y1142D01*
X1751Y1141D02*
X1764Y1141D01*
X1797Y1141D02*
X1810Y1141D01*
X1750Y1140D02*
X1763Y1140D01*
X1798Y1140D02*
X1810Y1140D01*
X1749Y1139D02*
X1762Y1139D01*
X1799Y1139D02*
X1811Y1139D01*
X1749Y1138D02*
X1761Y1138D01*
X1800Y1138D02*
X1812Y1138D01*
X1748Y1137D02*
X1760Y1137D01*
X1801Y1137D02*
X1813Y1137D01*
X1747Y1136D02*
X1759Y1136D01*
X1801Y1136D02*
X1814Y1136D01*
X1746Y1135D02*
X1758Y1135D01*
X1802Y1135D02*
X1815Y1135D01*
X1745Y1134D02*
X1758Y1134D01*
X1803Y1134D02*
X1816Y1134D01*
X1744Y1133D02*
X1757Y1133D01*
X1804Y1133D02*
X1816Y1133D01*
X1743Y1132D02*
X1756Y1132D01*
X1805Y1132D02*
X1817Y1132D01*
X1743Y1131D02*
X1755Y1131D01*
X1806Y1131D02*
X1818Y1131D01*
X1742Y1130D02*
X1754Y1130D01*
X1807Y1130D02*
X1818Y1130D01*
X1742Y1129D02*
X1753Y1129D01*
X1807Y1129D02*
X1819Y1129D01*
X1742Y1128D02*
X1752Y1128D01*
X1808Y1128D02*
X1819Y1128D01*
X1742Y1127D02*
X1752Y1127D01*
X1809Y1127D02*
X1819Y1127D01*
X1742Y1126D02*
X1751Y1126D01*
X1810Y1126D02*
X1818Y1126D01*
X1743Y1125D02*
X1750Y1125D01*
X1811Y1125D02*
X1818Y1125D01*
X1744Y1124D02*
X1749Y1124D01*
X1812Y1124D02*
X1816Y1124D01*
X1794Y1100D02*
X1817Y1100D01*
X1792Y1099D02*
X1818Y1099D01*
X1789Y1098D02*
X1818Y1098D01*
X1787Y1097D02*
X1819Y1097D01*
X1784Y1096D02*
X1819Y1096D01*
X1782Y1095D02*
X1819Y1095D01*
X1779Y1094D02*
X1818Y1094D01*
X1776Y1093D02*
X1818Y1093D01*
X1774Y1092D02*
X1817Y1092D01*
X1771Y1091D02*
X1815Y1091D01*
X1769Y1090D02*
X1796Y1090D01*
X1766Y1089D02*
X1793Y1089D01*
X1764Y1088D02*
X1791Y1088D01*
X1761Y1087D02*
X1788Y1087D01*
X1758Y1086D02*
X1785Y1086D01*
X1756Y1085D02*
X1783Y1085D01*
X1753Y1084D02*
X1780Y1084D01*
X1751Y1083D02*
X1778Y1083D01*
X1748Y1082D02*
X1775Y1082D01*
X1746Y1081D02*
X1773Y1081D01*
X1744Y1080D02*
X1770Y1080D01*
X1743Y1079D02*
X1768Y1079D01*
X1742Y1078D02*
X1765Y1078D01*
X1742Y1077D02*
X1762Y1077D01*
X1742Y1076D02*
X1761Y1076D01*
X1742Y1075D02*
X1763Y1075D01*
X1742Y1074D02*
X1765Y1074D01*
X1743Y1073D02*
X1768Y1073D01*
X1744Y1072D02*
X1770Y1072D01*
X1746Y1071D02*
X1773Y1071D01*
X1748Y1070D02*
X1775Y1070D01*
X1751Y1069D02*
X1778Y1069D01*
X1754Y1068D02*
X1780Y1068D01*
X1756Y1067D02*
X1783Y1067D01*
X1759Y1066D02*
X1786Y1066D01*
X1761Y1065D02*
X1788Y1065D01*
X1764Y1064D02*
X1791Y1064D01*
X1766Y1063D02*
X1793Y1063D01*
X1769Y1062D02*
X1796Y1062D01*
X1772Y1061D02*
X1815Y1061D01*
X1774Y1060D02*
X1817Y1060D01*
X1777Y1059D02*
X1818Y1059D01*
X1779Y1058D02*
X1818Y1058D01*
X1782Y1057D02*
X1819Y1057D01*
X1784Y1056D02*
X1819Y1056D01*
X1787Y1055D02*
X1819Y1055D01*
X1789Y1054D02*
X1818Y1054D01*
X1792Y1053D02*
X1818Y1053D01*
X1795Y1052D02*
X1816Y1052D01*
X1744Y1028D02*
X1819Y1028D01*
X1743Y1027D02*
X1819Y1027D01*
X1742Y1026D02*
X1819Y1026D01*
X1742Y1025D02*
X1819Y1025D01*
X1742Y1024D02*
X1819Y1024D01*
X1742Y1023D02*
X1819Y1023D01*
X1742Y1022D02*
X1819Y1022D01*
X1743Y1021D02*
X1819Y1021D01*
X1744Y1020D02*
X1819Y1020D01*
X1746Y1019D02*
X1819Y1019D01*
X1805Y1018D02*
X1819Y1018D01*
X1803Y1017D02*
X1819Y1017D01*
X1802Y1016D02*
X1818Y1016D01*
X1800Y1015D02*
X1817Y1015D01*
X1799Y1014D02*
X1816Y1014D01*
X1797Y1013D02*
X1814Y1013D01*
X1796Y1012D02*
X1813Y1012D01*
X1795Y1011D02*
X1811Y1011D01*
X1793Y1010D02*
X1810Y1010D01*
X1789Y1009D02*
X1808Y1009D01*
X1786Y1008D02*
X1807Y1008D01*
X1785Y1007D02*
X1806Y1007D01*
X1785Y1006D02*
X1804Y1006D01*
X1784Y1005D02*
X1803Y1005D01*
X1784Y1004D02*
X1802Y1004D01*
X1784Y1003D02*
X1803Y1003D01*
X1785Y1002D02*
X1804Y1002D01*
X1785Y1001D02*
X1806Y1001D01*
X1786Y1000D02*
X1807Y1000D01*
X1792Y999D02*
X1809Y999D01*
X1793Y998D02*
X1810Y998D01*
X1795Y997D02*
X1811Y997D01*
X1796Y996D02*
X1813Y996D01*
X1798Y995D02*
X1814Y995D01*
X1799Y994D02*
X1816Y994D01*
X1801Y993D02*
X1817Y993D01*
X1802Y992D02*
X1819Y992D01*
X1803Y991D02*
X1819Y991D01*
X1805Y990D02*
X1819Y990D01*
X1746Y989D02*
X1819Y989D01*
X1744Y988D02*
X1819Y988D01*
X1743Y987D02*
X1819Y987D01*
X1742Y986D02*
X1819Y986D01*
X1742Y985D02*
X1819Y985D01*
X1742Y984D02*
X1819Y984D01*
X1742Y983D02*
X1819Y983D01*
X1742Y982D02*
X1819Y982D01*
X1743Y981D02*
X1819Y981D01*
X1744Y980D02*
X1819Y980D01*
D02*
G04 End of Copper1*
M02*