G04 MADE WITH FRITZING*
G04 WWW.FRITZING.ORG*
G04 DOUBLE SIDED*
G04 HOLES PLATED*
G04 CONTOUR ON CENTER OF CONTOUR VECTOR*
%ASAXBY*%
%FSLAX23Y23*%
%MOIN*%
%OFA0B0*%
%SFA1.0B1.0*%
%ADD10R,1.958040X1.817050X1.942040X1.801050*%
%ADD11C,0.008000*%
%ADD12R,0.001000X0.001000*%
%LNSILK0*%
G90*
G70*
G54D11*
X4Y1813D02*
X1954Y1813D01*
X1954Y4D01*
X4Y4D01*
X4Y1813D01*
D02*
X1427Y1553D02*
X1427Y1400D01*
D02*
X1427Y1400D02*
X955Y1400D01*
D02*
X955Y1400D02*
X955Y1553D01*
D02*
X1426Y135D02*
X1426Y284D01*
D02*
X953Y135D02*
X953Y284D01*
D02*
X953Y450D02*
X953Y603D01*
D02*
X953Y603D02*
X1426Y603D01*
D02*
X1426Y603D02*
X1426Y450D01*
D02*
X328Y177D02*
X328Y650D01*
D02*
X328Y177D02*
X367Y177D01*
D02*
X328Y650D02*
X367Y650D01*
D02*
X485Y571D02*
X485Y256D01*
D02*
X328Y1079D02*
X328Y1551D01*
D02*
X328Y1079D02*
X367Y1079D01*
D02*
X328Y1551D02*
X367Y1551D01*
D02*
X485Y1472D02*
X485Y1157D01*
G54D12*
X951Y1817D02*
X958Y1817D01*
X1423Y1817D02*
X1430Y1817D01*
X951Y1816D02*
X958Y1816D01*
X1423Y1816D02*
X1430Y1816D01*
X951Y1815D02*
X958Y1815D01*
X1423Y1815D02*
X1430Y1815D01*
X951Y1814D02*
X958Y1814D01*
X1423Y1814D02*
X1430Y1814D01*
X951Y1813D02*
X958Y1813D01*
X1423Y1813D02*
X1430Y1813D01*
X951Y1812D02*
X958Y1812D01*
X1423Y1812D02*
X1430Y1812D01*
X951Y1811D02*
X958Y1811D01*
X1423Y1811D02*
X1430Y1811D01*
X951Y1810D02*
X958Y1810D01*
X1423Y1810D02*
X1430Y1810D01*
X951Y1809D02*
X958Y1809D01*
X1423Y1809D02*
X1430Y1809D01*
X951Y1808D02*
X958Y1808D01*
X1423Y1808D02*
X1430Y1808D01*
X951Y1807D02*
X958Y1807D01*
X1423Y1807D02*
X1430Y1807D01*
X951Y1806D02*
X958Y1806D01*
X1423Y1806D02*
X1430Y1806D01*
X951Y1805D02*
X958Y1805D01*
X1423Y1805D02*
X1430Y1805D01*
X951Y1804D02*
X958Y1804D01*
X1423Y1804D02*
X1430Y1804D01*
X951Y1803D02*
X958Y1803D01*
X1423Y1803D02*
X1430Y1803D01*
X951Y1802D02*
X958Y1802D01*
X1423Y1802D02*
X1430Y1802D01*
X951Y1801D02*
X958Y1801D01*
X1423Y1801D02*
X1430Y1801D01*
X951Y1800D02*
X958Y1800D01*
X1423Y1800D02*
X1430Y1800D01*
X951Y1799D02*
X958Y1799D01*
X1423Y1799D02*
X1430Y1799D01*
X951Y1798D02*
X958Y1798D01*
X1423Y1798D02*
X1430Y1798D01*
X951Y1797D02*
X958Y1797D01*
X1423Y1797D02*
X1430Y1797D01*
X951Y1796D02*
X958Y1796D01*
X1423Y1796D02*
X1430Y1796D01*
X951Y1795D02*
X958Y1795D01*
X1423Y1795D02*
X1430Y1795D01*
X951Y1794D02*
X958Y1794D01*
X1423Y1794D02*
X1430Y1794D01*
X951Y1793D02*
X958Y1793D01*
X1423Y1793D02*
X1430Y1793D01*
X951Y1792D02*
X958Y1792D01*
X1423Y1792D02*
X1430Y1792D01*
X951Y1791D02*
X958Y1791D01*
X1423Y1791D02*
X1430Y1791D01*
X951Y1790D02*
X958Y1790D01*
X1423Y1790D02*
X1430Y1790D01*
X951Y1789D02*
X958Y1789D01*
X1423Y1789D02*
X1430Y1789D01*
X951Y1788D02*
X958Y1788D01*
X1423Y1788D02*
X1430Y1788D01*
X951Y1787D02*
X958Y1787D01*
X1423Y1787D02*
X1430Y1787D01*
X951Y1786D02*
X958Y1786D01*
X1423Y1786D02*
X1430Y1786D01*
X951Y1785D02*
X958Y1785D01*
X1423Y1785D02*
X1430Y1785D01*
X951Y1784D02*
X958Y1784D01*
X1423Y1784D02*
X1430Y1784D01*
X951Y1783D02*
X958Y1783D01*
X1423Y1783D02*
X1430Y1783D01*
X951Y1782D02*
X958Y1782D01*
X1423Y1782D02*
X1430Y1782D01*
X951Y1781D02*
X958Y1781D01*
X1423Y1781D02*
X1430Y1781D01*
X951Y1780D02*
X958Y1780D01*
X1423Y1780D02*
X1430Y1780D01*
X951Y1779D02*
X958Y1779D01*
X1423Y1779D02*
X1430Y1779D01*
X951Y1778D02*
X958Y1778D01*
X1423Y1778D02*
X1430Y1778D01*
X951Y1777D02*
X958Y1777D01*
X1423Y1777D02*
X1430Y1777D01*
X951Y1776D02*
X958Y1776D01*
X1423Y1776D02*
X1430Y1776D01*
X951Y1775D02*
X958Y1775D01*
X1423Y1775D02*
X1430Y1775D01*
X951Y1774D02*
X958Y1774D01*
X1423Y1774D02*
X1430Y1774D01*
X951Y1773D02*
X958Y1773D01*
X1423Y1773D02*
X1430Y1773D01*
X951Y1772D02*
X958Y1772D01*
X1423Y1772D02*
X1430Y1772D01*
X951Y1771D02*
X958Y1771D01*
X1423Y1771D02*
X1430Y1771D01*
X951Y1770D02*
X958Y1770D01*
X1423Y1770D02*
X1430Y1770D01*
X951Y1769D02*
X958Y1769D01*
X1423Y1769D02*
X1430Y1769D01*
X951Y1768D02*
X958Y1768D01*
X1423Y1768D02*
X1430Y1768D01*
X951Y1767D02*
X958Y1767D01*
X1423Y1767D02*
X1430Y1767D01*
X951Y1766D02*
X958Y1766D01*
X1423Y1766D02*
X1430Y1766D01*
X951Y1765D02*
X958Y1765D01*
X1423Y1765D02*
X1430Y1765D01*
X951Y1764D02*
X958Y1764D01*
X1423Y1764D02*
X1430Y1764D01*
X951Y1763D02*
X958Y1763D01*
X1423Y1763D02*
X1430Y1763D01*
X951Y1762D02*
X958Y1762D01*
X1423Y1762D02*
X1430Y1762D01*
X951Y1761D02*
X958Y1761D01*
X1423Y1761D02*
X1430Y1761D01*
X951Y1760D02*
X958Y1760D01*
X1423Y1760D02*
X1430Y1760D01*
X951Y1759D02*
X958Y1759D01*
X1423Y1759D02*
X1430Y1759D01*
X951Y1758D02*
X958Y1758D01*
X1423Y1758D02*
X1430Y1758D01*
X951Y1757D02*
X958Y1757D01*
X1423Y1757D02*
X1430Y1757D01*
X951Y1756D02*
X958Y1756D01*
X1423Y1756D02*
X1430Y1756D01*
X951Y1755D02*
X958Y1755D01*
X1423Y1755D02*
X1430Y1755D01*
X951Y1754D02*
X958Y1754D01*
X1423Y1754D02*
X1430Y1754D01*
X951Y1753D02*
X958Y1753D01*
X1423Y1753D02*
X1430Y1753D01*
X951Y1752D02*
X958Y1752D01*
X1423Y1752D02*
X1430Y1752D01*
X951Y1751D02*
X958Y1751D01*
X1423Y1751D02*
X1430Y1751D01*
X951Y1750D02*
X958Y1750D01*
X1423Y1750D02*
X1430Y1750D01*
X951Y1749D02*
X958Y1749D01*
X1423Y1749D02*
X1430Y1749D01*
X951Y1748D02*
X958Y1748D01*
X1423Y1748D02*
X1430Y1748D01*
X951Y1747D02*
X958Y1747D01*
X1423Y1747D02*
X1430Y1747D01*
X951Y1746D02*
X958Y1746D01*
X1423Y1746D02*
X1430Y1746D01*
X951Y1745D02*
X958Y1745D01*
X1423Y1745D02*
X1430Y1745D01*
X951Y1744D02*
X958Y1744D01*
X1423Y1744D02*
X1430Y1744D01*
X951Y1743D02*
X958Y1743D01*
X1423Y1743D02*
X1430Y1743D01*
X951Y1742D02*
X958Y1742D01*
X1423Y1742D02*
X1430Y1742D01*
X951Y1741D02*
X958Y1741D01*
X1423Y1741D02*
X1430Y1741D01*
X951Y1740D02*
X958Y1740D01*
X1423Y1740D02*
X1430Y1740D01*
X951Y1739D02*
X958Y1739D01*
X1423Y1739D02*
X1430Y1739D01*
X951Y1738D02*
X958Y1738D01*
X1423Y1738D02*
X1430Y1738D01*
X951Y1737D02*
X958Y1737D01*
X1423Y1737D02*
X1430Y1737D01*
X951Y1736D02*
X958Y1736D01*
X1423Y1736D02*
X1430Y1736D01*
X951Y1735D02*
X958Y1735D01*
X1423Y1735D02*
X1430Y1735D01*
X951Y1734D02*
X958Y1734D01*
X1423Y1734D02*
X1430Y1734D01*
X951Y1733D02*
X958Y1733D01*
X1423Y1733D02*
X1430Y1733D01*
X951Y1732D02*
X958Y1732D01*
X1423Y1732D02*
X1430Y1732D01*
X951Y1731D02*
X958Y1731D01*
X1423Y1731D02*
X1430Y1731D01*
X951Y1730D02*
X958Y1730D01*
X1423Y1730D02*
X1430Y1730D01*
X951Y1729D02*
X958Y1729D01*
X1423Y1729D02*
X1430Y1729D01*
X951Y1728D02*
X958Y1728D01*
X1423Y1728D02*
X1430Y1728D01*
X951Y1727D02*
X958Y1727D01*
X1423Y1727D02*
X1430Y1727D01*
X951Y1726D02*
X958Y1726D01*
X1423Y1726D02*
X1430Y1726D01*
X951Y1725D02*
X958Y1725D01*
X1423Y1725D02*
X1430Y1725D01*
X951Y1724D02*
X958Y1724D01*
X1423Y1724D02*
X1430Y1724D01*
X951Y1723D02*
X958Y1723D01*
X1423Y1723D02*
X1430Y1723D01*
X951Y1722D02*
X958Y1722D01*
X1423Y1722D02*
X1430Y1722D01*
X951Y1721D02*
X958Y1721D01*
X1423Y1721D02*
X1430Y1721D01*
X951Y1720D02*
X958Y1720D01*
X1423Y1720D02*
X1430Y1720D01*
X951Y1719D02*
X958Y1719D01*
X1423Y1719D02*
X1430Y1719D01*
X951Y1718D02*
X958Y1718D01*
X1423Y1718D02*
X1430Y1718D01*
X951Y1717D02*
X957Y1717D01*
X1424Y1717D02*
X1430Y1717D01*
X952Y1716D02*
X956Y1716D01*
X1424Y1716D02*
X1429Y1716D01*
X954Y1715D02*
X954Y1715D01*
X1427Y1715D02*
X1427Y1715D01*
X1439Y1316D02*
X1441Y1316D01*
X1466Y1316D02*
X1469Y1316D01*
X1511Y1316D02*
X1514Y1316D01*
X1438Y1315D02*
X1442Y1315D01*
X1465Y1315D02*
X1470Y1315D01*
X1510Y1315D02*
X1515Y1315D01*
X1437Y1314D02*
X1443Y1314D01*
X1465Y1314D02*
X1470Y1314D01*
X1510Y1314D02*
X1515Y1314D01*
X1437Y1313D02*
X1444Y1313D01*
X1464Y1313D02*
X1471Y1313D01*
X1509Y1313D02*
X1515Y1313D01*
X1437Y1312D02*
X1444Y1312D01*
X1463Y1312D02*
X1470Y1312D01*
X1509Y1312D02*
X1515Y1312D01*
X1438Y1311D02*
X1445Y1311D01*
X1463Y1311D02*
X1470Y1311D01*
X1509Y1311D02*
X1515Y1311D01*
X1438Y1310D02*
X1445Y1310D01*
X1462Y1310D02*
X1469Y1310D01*
X1509Y1310D02*
X1515Y1310D01*
X1439Y1309D02*
X1446Y1309D01*
X1462Y1309D02*
X1469Y1309D01*
X1509Y1309D02*
X1515Y1309D01*
X1439Y1308D02*
X1447Y1308D01*
X1461Y1308D02*
X1468Y1308D01*
X1509Y1308D02*
X1515Y1308D01*
X1440Y1307D02*
X1447Y1307D01*
X1460Y1307D02*
X1468Y1307D01*
X1509Y1307D02*
X1515Y1307D01*
X1441Y1306D02*
X1448Y1306D01*
X1460Y1306D02*
X1467Y1306D01*
X1509Y1306D02*
X1515Y1306D01*
X1441Y1305D02*
X1448Y1305D01*
X1459Y1305D02*
X1466Y1305D01*
X1509Y1305D02*
X1515Y1305D01*
X1442Y1304D02*
X1449Y1304D01*
X1459Y1304D02*
X1466Y1304D01*
X1509Y1304D02*
X1515Y1304D01*
X1442Y1303D02*
X1450Y1303D01*
X1458Y1303D02*
X1465Y1303D01*
X1509Y1303D02*
X1515Y1303D01*
X1443Y1302D02*
X1450Y1302D01*
X1458Y1302D02*
X1465Y1302D01*
X1509Y1302D02*
X1515Y1302D01*
X1443Y1301D02*
X1451Y1301D01*
X1457Y1301D02*
X1464Y1301D01*
X1509Y1301D02*
X1515Y1301D01*
X1444Y1300D02*
X1451Y1300D01*
X1456Y1300D02*
X1464Y1300D01*
X1509Y1300D02*
X1515Y1300D01*
X1445Y1299D02*
X1452Y1299D01*
X1456Y1299D02*
X1463Y1299D01*
X1509Y1299D02*
X1516Y1299D01*
X1445Y1298D02*
X1452Y1298D01*
X1455Y1298D02*
X1462Y1298D01*
X1489Y1298D02*
X1518Y1298D01*
X1446Y1297D02*
X1453Y1297D01*
X1455Y1297D02*
X1462Y1297D01*
X1489Y1297D02*
X1518Y1297D01*
X1446Y1296D02*
X1461Y1296D01*
X1489Y1296D02*
X1519Y1296D01*
X1447Y1295D02*
X1461Y1295D01*
X1489Y1295D02*
X1519Y1295D01*
X1448Y1294D02*
X1460Y1294D01*
X1489Y1294D02*
X1519Y1294D01*
X1448Y1293D02*
X1459Y1293D01*
X1489Y1293D02*
X1518Y1293D01*
X1449Y1292D02*
X1459Y1292D01*
X1489Y1292D02*
X1516Y1292D01*
X1449Y1291D02*
X1458Y1291D01*
X1489Y1291D02*
X1495Y1291D01*
X1509Y1291D02*
X1515Y1291D01*
X1450Y1290D02*
X1458Y1290D01*
X1489Y1290D02*
X1495Y1290D01*
X1509Y1290D02*
X1515Y1290D01*
X1450Y1289D02*
X1458Y1289D01*
X1489Y1289D02*
X1495Y1289D01*
X1509Y1289D02*
X1515Y1289D01*
X1449Y1288D02*
X1458Y1288D01*
X1489Y1288D02*
X1495Y1288D01*
X1509Y1288D02*
X1515Y1288D01*
X1449Y1287D02*
X1459Y1287D01*
X1489Y1287D02*
X1495Y1287D01*
X1509Y1287D02*
X1515Y1287D01*
X1448Y1286D02*
X1459Y1286D01*
X1489Y1286D02*
X1495Y1286D01*
X1509Y1286D02*
X1515Y1286D01*
X1448Y1285D02*
X1460Y1285D01*
X1489Y1285D02*
X1495Y1285D01*
X1509Y1285D02*
X1515Y1285D01*
X1447Y1284D02*
X1461Y1284D01*
X1489Y1284D02*
X1495Y1284D01*
X1509Y1284D02*
X1515Y1284D01*
X1446Y1283D02*
X1461Y1283D01*
X1489Y1283D02*
X1495Y1283D01*
X1509Y1283D02*
X1515Y1283D01*
X1446Y1282D02*
X1462Y1282D01*
X1489Y1282D02*
X1495Y1282D01*
X1509Y1282D02*
X1515Y1282D01*
X1445Y1281D02*
X1452Y1281D01*
X1455Y1281D02*
X1462Y1281D01*
X1489Y1281D02*
X1495Y1281D01*
X1509Y1281D02*
X1515Y1281D01*
X1445Y1280D02*
X1452Y1280D01*
X1456Y1280D02*
X1463Y1280D01*
X1489Y1280D02*
X1495Y1280D01*
X1509Y1280D02*
X1515Y1280D01*
X1444Y1279D02*
X1451Y1279D01*
X1456Y1279D02*
X1463Y1279D01*
X1489Y1279D02*
X1495Y1279D01*
X1509Y1279D02*
X1515Y1279D01*
X1443Y1278D02*
X1451Y1278D01*
X1457Y1278D02*
X1464Y1278D01*
X1489Y1278D02*
X1495Y1278D01*
X1509Y1278D02*
X1515Y1278D01*
X1443Y1277D02*
X1450Y1277D01*
X1458Y1277D02*
X1465Y1277D01*
X1489Y1277D02*
X1495Y1277D01*
X1509Y1277D02*
X1515Y1277D01*
X1442Y1276D02*
X1450Y1276D01*
X1458Y1276D02*
X1465Y1276D01*
X1489Y1276D02*
X1495Y1276D01*
X1509Y1276D02*
X1515Y1276D01*
X1442Y1275D02*
X1449Y1275D01*
X1459Y1275D02*
X1466Y1275D01*
X1489Y1275D02*
X1495Y1275D01*
X1509Y1275D02*
X1515Y1275D01*
X1441Y1274D02*
X1448Y1274D01*
X1459Y1274D02*
X1466Y1274D01*
X1489Y1274D02*
X1495Y1274D01*
X1509Y1274D02*
X1515Y1274D01*
X1441Y1273D02*
X1448Y1273D01*
X1460Y1273D02*
X1467Y1273D01*
X1489Y1273D02*
X1495Y1273D01*
X1509Y1273D02*
X1515Y1273D01*
X1440Y1272D02*
X1447Y1272D01*
X1460Y1272D02*
X1468Y1272D01*
X1489Y1272D02*
X1495Y1272D01*
X1509Y1272D02*
X1515Y1272D01*
X1439Y1271D02*
X1447Y1271D01*
X1461Y1271D02*
X1468Y1271D01*
X1489Y1271D02*
X1495Y1271D01*
X1510Y1271D02*
X1515Y1271D01*
X1439Y1270D02*
X1446Y1270D01*
X1462Y1270D02*
X1469Y1270D01*
X1489Y1270D02*
X1495Y1270D01*
X1510Y1270D02*
X1515Y1270D01*
X1438Y1269D02*
X1445Y1269D01*
X1462Y1269D02*
X1469Y1269D01*
X1489Y1269D02*
X1495Y1269D01*
X1511Y1269D02*
X1514Y1269D01*
X1438Y1268D02*
X1445Y1268D01*
X1463Y1268D02*
X1470Y1268D01*
X1489Y1268D02*
X1495Y1268D01*
X1437Y1267D02*
X1444Y1267D01*
X1463Y1267D02*
X1470Y1267D01*
X1489Y1267D02*
X1495Y1267D01*
X1437Y1266D02*
X1444Y1266D01*
X1464Y1266D02*
X1471Y1266D01*
X1489Y1266D02*
X1495Y1266D01*
X1437Y1265D02*
X1443Y1265D01*
X1465Y1265D02*
X1470Y1265D01*
X1489Y1265D02*
X1495Y1265D01*
X1438Y1264D02*
X1442Y1264D01*
X1465Y1264D02*
X1470Y1264D01*
X1489Y1264D02*
X1494Y1264D01*
X1439Y1263D02*
X1441Y1263D01*
X1466Y1263D02*
X1469Y1263D01*
X1490Y1263D02*
X1493Y1263D01*
X586Y1007D02*
X590Y1007D01*
X614Y1007D02*
X617Y1007D01*
X636Y1007D02*
X667Y1007D01*
X586Y1006D02*
X591Y1006D01*
X613Y1006D02*
X618Y1006D01*
X636Y1006D02*
X668Y1006D01*
X585Y1005D02*
X591Y1005D01*
X612Y1005D02*
X619Y1005D01*
X635Y1005D02*
X669Y1005D01*
X585Y1004D02*
X592Y1004D01*
X612Y1004D02*
X619Y1004D01*
X635Y1004D02*
X669Y1004D01*
X585Y1003D02*
X593Y1003D01*
X611Y1003D02*
X618Y1003D01*
X635Y1003D02*
X669Y1003D01*
X586Y1002D02*
X593Y1002D01*
X611Y1002D02*
X618Y1002D01*
X635Y1002D02*
X669Y1002D01*
X587Y1001D02*
X594Y1001D01*
X610Y1001D02*
X617Y1001D01*
X635Y1001D02*
X669Y1001D01*
X587Y1000D02*
X594Y1000D01*
X610Y1000D02*
X617Y1000D01*
X635Y1000D02*
X641Y1000D01*
X663Y1000D02*
X669Y1000D01*
X588Y999D02*
X595Y999D01*
X609Y999D02*
X616Y999D01*
X635Y999D02*
X641Y999D01*
X663Y999D02*
X669Y999D01*
X588Y998D02*
X595Y998D01*
X608Y998D02*
X616Y998D01*
X635Y998D02*
X641Y998D01*
X663Y998D02*
X669Y998D01*
X589Y997D02*
X596Y997D01*
X608Y997D02*
X615Y997D01*
X635Y997D02*
X641Y997D01*
X663Y997D02*
X669Y997D01*
X589Y996D02*
X597Y996D01*
X607Y996D02*
X614Y996D01*
X635Y996D02*
X641Y996D01*
X663Y996D02*
X669Y996D01*
X590Y995D02*
X597Y995D01*
X607Y995D02*
X614Y995D01*
X635Y995D02*
X641Y995D01*
X663Y995D02*
X669Y995D01*
X591Y994D02*
X598Y994D01*
X606Y994D02*
X613Y994D01*
X635Y994D02*
X641Y994D01*
X663Y994D02*
X669Y994D01*
X591Y993D02*
X598Y993D01*
X605Y993D02*
X613Y993D01*
X635Y993D02*
X641Y993D01*
X663Y993D02*
X669Y993D01*
X592Y992D02*
X599Y992D01*
X605Y992D02*
X612Y992D01*
X635Y992D02*
X641Y992D01*
X663Y992D02*
X669Y992D01*
X592Y991D02*
X600Y991D01*
X604Y991D02*
X611Y991D01*
X635Y991D02*
X641Y991D01*
X663Y991D02*
X669Y991D01*
X593Y990D02*
X600Y990D01*
X604Y990D02*
X611Y990D01*
X635Y990D02*
X669Y990D01*
X594Y989D02*
X601Y989D01*
X603Y989D02*
X610Y989D01*
X635Y989D02*
X669Y989D01*
X594Y988D02*
X610Y988D01*
X635Y988D02*
X669Y988D01*
X595Y987D02*
X609Y987D01*
X635Y987D02*
X669Y987D01*
X595Y986D02*
X609Y986D01*
X635Y986D02*
X669Y986D01*
X596Y985D02*
X608Y985D01*
X635Y985D02*
X668Y985D01*
X596Y984D02*
X607Y984D01*
X635Y984D02*
X667Y984D01*
X597Y983D02*
X607Y983D01*
X635Y983D02*
X641Y983D01*
X598Y982D02*
X606Y982D01*
X635Y982D02*
X641Y982D01*
X598Y981D02*
X606Y981D01*
X635Y981D02*
X641Y981D01*
X598Y980D02*
X606Y980D01*
X635Y980D02*
X641Y980D01*
X597Y979D02*
X607Y979D01*
X635Y979D02*
X641Y979D01*
X597Y978D02*
X607Y978D01*
X635Y978D02*
X641Y978D01*
X596Y977D02*
X608Y977D01*
X635Y977D02*
X641Y977D01*
X596Y976D02*
X608Y976D01*
X635Y976D02*
X641Y976D01*
X595Y975D02*
X609Y975D01*
X635Y975D02*
X641Y975D01*
X594Y974D02*
X609Y974D01*
X635Y974D02*
X641Y974D01*
X594Y973D02*
X601Y973D01*
X603Y973D02*
X610Y973D01*
X635Y973D02*
X641Y973D01*
X593Y972D02*
X600Y972D01*
X603Y972D02*
X611Y972D01*
X635Y972D02*
X641Y972D01*
X593Y971D02*
X600Y971D01*
X604Y971D02*
X611Y971D01*
X635Y971D02*
X641Y971D01*
X592Y970D02*
X599Y970D01*
X605Y970D02*
X612Y970D01*
X635Y970D02*
X641Y970D01*
X591Y969D02*
X599Y969D01*
X605Y969D02*
X612Y969D01*
X635Y969D02*
X641Y969D01*
X591Y968D02*
X598Y968D01*
X606Y968D02*
X613Y968D01*
X635Y968D02*
X641Y968D01*
X590Y967D02*
X597Y967D01*
X606Y967D02*
X614Y967D01*
X635Y967D02*
X641Y967D01*
X590Y966D02*
X597Y966D01*
X607Y966D02*
X614Y966D01*
X635Y966D02*
X641Y966D01*
X589Y965D02*
X596Y965D01*
X608Y965D02*
X615Y965D01*
X635Y965D02*
X641Y965D01*
X588Y964D02*
X596Y964D01*
X608Y964D02*
X615Y964D01*
X635Y964D02*
X641Y964D01*
X588Y963D02*
X595Y963D01*
X609Y963D02*
X616Y963D01*
X635Y963D02*
X641Y963D01*
X587Y962D02*
X594Y962D01*
X609Y962D02*
X617Y962D01*
X635Y962D02*
X641Y962D01*
X587Y961D02*
X594Y961D01*
X610Y961D02*
X617Y961D01*
X635Y961D02*
X641Y961D01*
X586Y960D02*
X593Y960D01*
X611Y960D02*
X618Y960D01*
X635Y960D02*
X643Y960D01*
X586Y959D02*
X593Y959D01*
X611Y959D02*
X618Y959D01*
X635Y959D02*
X644Y959D01*
X585Y958D02*
X592Y958D01*
X612Y958D02*
X619Y958D01*
X635Y958D02*
X644Y958D01*
X585Y957D02*
X592Y957D01*
X612Y957D02*
X619Y957D01*
X635Y957D02*
X645Y957D01*
X585Y956D02*
X591Y956D01*
X613Y956D02*
X618Y956D01*
X635Y956D02*
X644Y956D01*
X586Y955D02*
X590Y955D01*
X614Y955D02*
X618Y955D01*
X636Y955D02*
X644Y955D01*
X587Y954D02*
X589Y954D01*
X615Y954D02*
X616Y954D01*
X637Y954D02*
X642Y954D01*
X235Y775D02*
X263Y775D01*
X283Y775D02*
X286Y775D01*
X310Y775D02*
X313Y775D01*
X234Y774D02*
X264Y774D01*
X282Y774D02*
X287Y774D01*
X309Y774D02*
X314Y774D01*
X233Y773D02*
X265Y773D01*
X281Y773D02*
X287Y773D01*
X309Y773D02*
X315Y773D01*
X232Y772D02*
X265Y772D01*
X281Y772D02*
X288Y772D01*
X308Y772D02*
X315Y772D01*
X232Y771D02*
X264Y771D01*
X281Y771D02*
X288Y771D01*
X307Y771D02*
X314Y771D01*
X231Y770D02*
X264Y770D01*
X282Y770D02*
X289Y770D01*
X307Y770D02*
X314Y770D01*
X231Y769D02*
X263Y769D01*
X282Y769D02*
X290Y769D01*
X306Y769D02*
X313Y769D01*
X231Y768D02*
X237Y768D01*
X283Y768D02*
X290Y768D01*
X306Y768D02*
X313Y768D01*
X231Y767D02*
X237Y767D01*
X284Y767D02*
X291Y767D01*
X305Y767D02*
X312Y767D01*
X231Y766D02*
X237Y766D01*
X284Y766D02*
X291Y766D01*
X305Y766D02*
X312Y766D01*
X231Y765D02*
X237Y765D01*
X285Y765D02*
X292Y765D01*
X304Y765D02*
X311Y765D01*
X231Y764D02*
X237Y764D01*
X285Y764D02*
X293Y764D01*
X303Y764D02*
X311Y764D01*
X231Y763D02*
X237Y763D01*
X286Y763D02*
X293Y763D01*
X303Y763D02*
X310Y763D01*
X231Y762D02*
X237Y762D01*
X287Y762D02*
X294Y762D01*
X302Y762D02*
X309Y762D01*
X231Y761D02*
X237Y761D01*
X287Y761D02*
X294Y761D01*
X302Y761D02*
X309Y761D01*
X231Y760D02*
X237Y760D01*
X288Y760D02*
X295Y760D01*
X301Y760D02*
X308Y760D01*
X231Y759D02*
X237Y759D01*
X288Y759D02*
X295Y759D01*
X300Y759D02*
X308Y759D01*
X231Y758D02*
X237Y758D01*
X289Y758D02*
X296Y758D01*
X300Y758D02*
X307Y758D01*
X231Y757D02*
X237Y757D01*
X289Y757D02*
X297Y757D01*
X299Y757D02*
X306Y757D01*
X231Y756D02*
X237Y756D01*
X290Y756D02*
X306Y756D01*
X231Y755D02*
X237Y755D01*
X291Y755D02*
X305Y755D01*
X231Y754D02*
X237Y754D01*
X291Y754D02*
X305Y754D01*
X231Y753D02*
X237Y753D01*
X292Y753D02*
X304Y753D01*
X231Y752D02*
X258Y752D01*
X292Y752D02*
X304Y752D01*
X231Y751D02*
X261Y751D01*
X293Y751D02*
X303Y751D01*
X231Y750D02*
X263Y750D01*
X294Y750D02*
X302Y750D01*
X232Y749D02*
X263Y749D01*
X294Y749D02*
X302Y749D01*
X233Y748D02*
X264Y748D01*
X294Y748D02*
X302Y748D01*
X233Y747D02*
X264Y747D01*
X293Y747D02*
X302Y747D01*
X235Y746D02*
X265Y746D01*
X293Y746D02*
X303Y746D01*
X258Y745D02*
X265Y745D01*
X292Y745D02*
X304Y745D01*
X259Y744D02*
X265Y744D01*
X292Y744D02*
X304Y744D01*
X259Y743D02*
X265Y743D01*
X291Y743D02*
X305Y743D01*
X259Y742D02*
X265Y742D01*
X291Y742D02*
X305Y742D01*
X259Y741D02*
X265Y741D01*
X290Y741D02*
X297Y741D01*
X299Y741D02*
X306Y741D01*
X259Y740D02*
X265Y740D01*
X289Y740D02*
X297Y740D01*
X299Y740D02*
X307Y740D01*
X259Y739D02*
X265Y739D01*
X289Y739D02*
X296Y739D01*
X300Y739D02*
X307Y739D01*
X259Y738D02*
X265Y738D01*
X288Y738D02*
X295Y738D01*
X301Y738D02*
X308Y738D01*
X259Y737D02*
X265Y737D01*
X288Y737D02*
X295Y737D01*
X301Y737D02*
X308Y737D01*
X259Y736D02*
X265Y736D01*
X287Y736D02*
X294Y736D01*
X302Y736D02*
X309Y736D01*
X259Y735D02*
X265Y735D01*
X286Y735D02*
X294Y735D01*
X302Y735D02*
X309Y735D01*
X259Y734D02*
X265Y734D01*
X286Y734D02*
X293Y734D01*
X303Y734D02*
X310Y734D01*
X259Y733D02*
X265Y733D01*
X285Y733D02*
X292Y733D01*
X303Y733D02*
X311Y733D01*
X259Y732D02*
X265Y732D01*
X285Y732D02*
X292Y732D01*
X304Y732D02*
X311Y732D01*
X259Y731D02*
X265Y731D01*
X284Y731D02*
X291Y731D01*
X305Y731D02*
X312Y731D01*
X259Y730D02*
X265Y730D01*
X284Y730D02*
X291Y730D01*
X305Y730D02*
X312Y730D01*
X259Y729D02*
X265Y729D01*
X283Y729D02*
X290Y729D01*
X306Y729D02*
X313Y729D01*
X233Y728D02*
X265Y728D01*
X282Y728D02*
X290Y728D01*
X306Y728D02*
X314Y728D01*
X232Y727D02*
X265Y727D01*
X282Y727D02*
X289Y727D01*
X307Y727D02*
X314Y727D01*
X231Y726D02*
X265Y726D01*
X281Y726D02*
X288Y726D01*
X308Y726D02*
X314Y726D01*
X231Y725D02*
X265Y725D01*
X281Y725D02*
X288Y725D01*
X308Y725D02*
X315Y725D01*
X231Y724D02*
X265Y724D01*
X281Y724D02*
X287Y724D01*
X309Y724D02*
X315Y724D01*
X232Y723D02*
X265Y723D01*
X282Y723D02*
X287Y723D01*
X309Y723D02*
X314Y723D01*
X233Y722D02*
X265Y722D01*
X283Y722D02*
X285Y722D01*
X310Y722D02*
X313Y722D01*
X1437Y51D02*
X1440Y51D01*
X1464Y51D02*
X1468Y51D01*
X1493Y51D02*
X1515Y51D01*
X1436Y50D02*
X1441Y50D01*
X1463Y50D02*
X1469Y50D01*
X1490Y50D02*
X1517Y50D01*
X1436Y49D02*
X1442Y49D01*
X1463Y49D02*
X1469Y49D01*
X1488Y49D02*
X1518Y49D01*
X1436Y48D02*
X1442Y48D01*
X1462Y48D02*
X1469Y48D01*
X1486Y48D02*
X1518Y48D01*
X1436Y47D02*
X1443Y47D01*
X1462Y47D02*
X1469Y47D01*
X1486Y47D02*
X1519Y47D01*
X1436Y46D02*
X1443Y46D01*
X1461Y46D02*
X1468Y46D01*
X1486Y46D02*
X1519Y46D01*
X1437Y45D02*
X1444Y45D01*
X1460Y45D02*
X1468Y45D01*
X1486Y45D02*
X1519Y45D01*
X1437Y44D02*
X1445Y44D01*
X1460Y44D02*
X1467Y44D01*
X1486Y44D02*
X1493Y44D01*
X1513Y44D02*
X1519Y44D01*
X1438Y43D02*
X1445Y43D01*
X1459Y43D02*
X1466Y43D01*
X1487Y43D02*
X1491Y43D01*
X1513Y43D02*
X1519Y43D01*
X1439Y42D02*
X1446Y42D01*
X1459Y42D02*
X1466Y42D01*
X1513Y42D02*
X1519Y42D01*
X1439Y41D02*
X1446Y41D01*
X1458Y41D02*
X1465Y41D01*
X1513Y41D02*
X1519Y41D01*
X1440Y40D02*
X1447Y40D01*
X1457Y40D02*
X1465Y40D01*
X1513Y40D02*
X1519Y40D01*
X1440Y39D02*
X1448Y39D01*
X1457Y39D02*
X1464Y39D01*
X1513Y39D02*
X1519Y39D01*
X1441Y38D02*
X1448Y38D01*
X1456Y38D02*
X1463Y38D01*
X1513Y38D02*
X1519Y38D01*
X1442Y37D02*
X1449Y37D01*
X1456Y37D02*
X1463Y37D01*
X1513Y37D02*
X1519Y37D01*
X1442Y36D02*
X1449Y36D01*
X1455Y36D02*
X1462Y36D01*
X1513Y36D02*
X1519Y36D01*
X1443Y35D02*
X1450Y35D01*
X1455Y35D02*
X1462Y35D01*
X1513Y35D02*
X1519Y35D01*
X1443Y34D02*
X1450Y34D01*
X1454Y34D02*
X1461Y34D01*
X1513Y34D02*
X1519Y34D01*
X1444Y33D02*
X1451Y33D01*
X1453Y33D02*
X1461Y33D01*
X1513Y33D02*
X1519Y33D01*
X1444Y32D02*
X1460Y32D01*
X1513Y32D02*
X1519Y32D01*
X1445Y31D02*
X1459Y31D01*
X1513Y31D02*
X1519Y31D01*
X1446Y30D02*
X1459Y30D01*
X1513Y30D02*
X1519Y30D01*
X1446Y29D02*
X1458Y29D01*
X1513Y29D02*
X1519Y29D01*
X1447Y28D02*
X1458Y28D01*
X1492Y28D02*
X1519Y28D01*
X1447Y27D02*
X1457Y27D01*
X1492Y27D02*
X1519Y27D01*
X1448Y26D02*
X1456Y26D01*
X1492Y26D02*
X1519Y26D01*
X1448Y25D02*
X1456Y25D01*
X1492Y25D02*
X1518Y25D01*
X1448Y24D02*
X1456Y24D01*
X1492Y24D02*
X1517Y24D01*
X1448Y23D02*
X1457Y23D01*
X1492Y23D02*
X1516Y23D01*
X1447Y22D02*
X1457Y22D01*
X1492Y22D02*
X1515Y22D01*
X1446Y21D02*
X1458Y21D01*
X1492Y21D02*
X1498Y21D01*
X1446Y20D02*
X1459Y20D01*
X1492Y20D02*
X1498Y20D01*
X1445Y19D02*
X1459Y19D01*
X1492Y19D02*
X1498Y19D01*
X1445Y18D02*
X1460Y18D01*
X1492Y18D02*
X1498Y18D01*
X1444Y17D02*
X1451Y17D01*
X1453Y17D02*
X1460Y17D01*
X1492Y17D02*
X1498Y17D01*
X1443Y16D02*
X1451Y16D01*
X1454Y16D02*
X1461Y16D01*
X1492Y16D02*
X1498Y16D01*
X1443Y15D02*
X1450Y15D01*
X1454Y15D02*
X1462Y15D01*
X1492Y15D02*
X1498Y15D01*
X1442Y14D02*
X1449Y14D01*
X1455Y14D02*
X1462Y14D01*
X1492Y14D02*
X1498Y14D01*
X1442Y13D02*
X1449Y13D01*
X1456Y13D02*
X1463Y13D01*
X1492Y13D02*
X1498Y13D01*
X1441Y12D02*
X1448Y12D01*
X1456Y12D02*
X1463Y12D01*
X1492Y12D02*
X1498Y12D01*
X1441Y11D02*
X1448Y11D01*
X1457Y11D02*
X1464Y11D01*
X1492Y11D02*
X1498Y11D01*
X1440Y10D02*
X1447Y10D01*
X1457Y10D02*
X1464Y10D01*
X1492Y10D02*
X1498Y10D01*
X1439Y9D02*
X1447Y9D01*
X1458Y9D02*
X1465Y9D01*
X1492Y9D02*
X1498Y9D01*
X1439Y8D02*
X1446Y8D01*
X1458Y8D02*
X1466Y8D01*
X1492Y8D02*
X1498Y8D01*
X1438Y7D02*
X1445Y7D01*
X1459Y7D02*
X1466Y7D01*
X1492Y7D02*
X1498Y7D01*
X1438Y6D02*
X1445Y6D01*
X1460Y6D02*
X1467Y6D01*
X1492Y6D02*
X1498Y6D01*
X1437Y5D02*
X1444Y5D01*
X1460Y5D02*
X1467Y5D01*
X1492Y5D02*
X1499Y5D01*
X1436Y4D02*
X1444Y4D01*
X1461Y4D02*
X1468Y4D01*
X1492Y4D02*
X1518Y4D01*
X1436Y3D02*
X1443Y3D01*
X1461Y3D02*
X1469Y3D01*
X1492Y3D02*
X1518Y3D01*
X1436Y2D02*
X1442Y2D01*
X1462Y2D02*
X1469Y2D01*
X1492Y2D02*
X1519Y2D01*
X1436Y1D02*
X1442Y1D01*
X1463Y1D02*
X1469Y1D01*
X1492Y1D02*
X1519Y1D01*
X1436Y0D02*
X1441Y0D01*
X1463Y0D02*
X1469Y0D01*
X1492Y0D02*
X1519Y0D01*
X1436Y-1D02*
X1440Y-1D01*
X1464Y-1D02*
X1468Y-1D01*
X1492Y-1D02*
X1518Y-1D01*
D02*
G04 End of Silk0*
M02*